<?xml version="1.0" encoding="utf-8"?>
<!-- Generator: Adobe Illustrator 19.1.0, SVG Export Plug-In . SVG Version: 6.00 Build 0)  -->
<svg version="1.1" id="Режим_изоляции"
	 xmlns="http://www.w3.org/2000/svg" xmlns:xlink="http://www.w3.org/1999/xlink" x="0px" y="0px" viewBox="0 0 225.637 183.667"
	 enable-background="new 0 0 225.637 183.667" xml:space="preserve">
<path fill="#FFDA00" d="M69.206,29.069C60.663,20.921,58.01,8.761,56.615,4.711c-0.637-1.829-1.639-0.717-2.178,0.67
	c-1.448,3.712-2.884,11.94-0.805,20.236c-5.033-2.688-9.735-5.884-14.039-9.512C31.166,9.457,25.369,3.132,23.012,1.21
	c-1.559-1.275-1.893,1.52-1.755,3.446c0.532,7.254,5.218,22.767,18.84,33.814c0.4,0.315,0.962,0.747,1.367,1.057
	c0,0-5.467,4.06-8.236,6.328c-11.271,9.22-18.533,21.993-20.653,28.175c-0.336,0.99-0.156,3.756,2.855,0.429
	c3.308-3.651,9.284-9.982,19.246-15.994c13.089-7.896,19.403-4.369,31.287-10.24c10.407-5.143,10.663-12.038,19.623-11.614
	c1.135,0.054,0.665-1.014,0.185-1.674C83.477,31.798,79.781,28.143,69.206,29.069z"/>
<path fill="#E5E5E5" d="M62.284,29.383c0.494,0.203,1.303,0.521,1.303,0.521c1.848-0.403,3.782-0.619,5.618-0.835
	c-0.005-0.002-0.099-0.091-0.099-0.097c-1.06-1.02-2.027-2.101-2.913-3.218C65.841,28.036,63.623,28.989,62.284,29.383z"/>
<path fill="#00CFFF" d="M53.256,132.333c2.606-10.84,11.908-21.157,18.498-28.256c4.593-4.938,4.796-6.837,3.632-7.943
	c-2.474-2.354-8.595,4.084-12.916,7.852c-2.42,2.107-6.949,6.135-10.749,9.307c-14.219,11.854-20.103,13.309-24.417,13.121
	c-1.529-0.066-2.959-0.429-4.257-1.119c-2.763-1.459-4.859-4.722-6.412-8.33c-1.419-3.311-2.357-6.625-3.307-11.688
	c-0.955-5.063-0.549-14.736-4.204-13.02c-2.774,1.303-2.478,13.195-2.478,13.195c0.462,38.9,31.297,70.531,69.198,72.711
	c3.632,0.209,18.927-0.37,18.047-4.387C92.482,167.361,45.09,166.302,53.256,132.333z M75.994,178.155
	c-0.041-0.002-0.076-0.002-0.116-0.002c0.046,0,0.087,0,0.133,0.002C76.005,178.155,75.999,178.155,75.994,178.155z"/>
<path fill="#E5E5E5" d="M18.43,130.713c5.468-0.394,12.846-3.115,20.126-7.79l-0.023-0.014c-5.363,3.119-8.589,3.619-11.23,3.504
	c-0.597-0.025-1.175-0.098-1.743-0.217c-2.056,1.49-4.656,2.849-7.871,3.645L18.43,130.713z"/>
<path fill="#E5E5E5" d="M58.289,169.279c0,0-4.355-8.349-2.699-17.626c-3.046-4.895-4.297-11.156-2.333-19.32
	c0.272-1.137,0.625-2.271,1.031-3.395c0,0.009,0,0.016-0.005,0.02c-5.891,15.826-5.589,30.774,2.728,40.321H58.289z"/>
<g>
	<path fill="#56DB31" d="M138.994,106.341c-0.349,0-0.679,0.066-0.99,0.194c-0.313,0.131-0.585,0.302-0.811,0.53
		c-0.232,0.215-0.417,0.479-0.551,0.779c-0.139,0.307-0.208,0.629-0.208,0.982c0,0.35,0.069,0.674,0.208,0.979
		c0.134,0.304,0.318,0.564,0.551,0.784c0.225,0.22,0.498,0.397,0.811,0.524c0.311,0.131,0.642,0.198,0.99,0.198
		c0.719,0,1.32-0.243,1.813-0.723c0.486-0.478,0.723-1.065,0.723-1.763c0-0.702-0.236-1.287-0.723-1.762
		C140.314,106.583,139.713,106.341,138.994,106.341z"/>
	<path fill="#56DB31" d="M150.758,96.134c-1.091,0-2.057,0.18-2.915,0.525c-0.857,0.353-1.581,0.854-2.177,1.493
		c-0.597,0.646-1.054,1.44-1.378,2.381c-0.326,0.952-0.48,2.013-0.48,3.19c0,2.393,0.549,4.252,1.65,5.572
		c1.104,1.322,2.854,1.983,5.247,1.983c2.368,0,4.134-0.661,5.287-1.983c1.165-1.32,1.743-3.201,1.743-5.631
		c0-2.35-0.584-4.192-1.75-5.526C154.816,96.803,153.073,96.134,150.758,96.134z M153.415,105.375
		c-0.099,0.498-0.261,0.938-0.498,1.315c-0.226,0.375-0.521,0.664-0.881,0.883c-0.357,0.208-0.793,0.314-1.309,0.314
		c-0.996,0-1.708-0.355-2.138-1.074c-0.427-0.719-0.647-1.767-0.647-3.148c0-1.264,0.236-2.27,0.7-3.016
		c0.475-0.747,1.193-1.118,2.167-1.118c0.52,0,0.949,0.107,1.296,0.318c0.355,0.208,0.638,0.498,0.864,0.866
		c0.208,0.374,0.37,0.811,0.463,1.329c0.093,0.517,0.139,1.086,0.139,1.707C153.571,104.337,153.519,104.879,153.415,105.375z"/>
	<path fill="#56DB31" d="M192.018,106.341c-0.349,0-0.686,0.066-0.992,0.194c-0.313,0.131-0.584,0.302-0.816,0.53
		c-0.227,0.215-0.411,0.479-0.544,0.779c-0.145,0.307-0.214,0.629-0.214,0.982c0,0.35,0.069,0.674,0.214,0.979
		c0.133,0.304,0.317,0.564,0.544,0.784c0.232,0.22,0.504,0.397,0.816,0.524c0.307,0.131,0.643,0.198,0.992,0.198
		c0.722,0,1.319-0.243,1.806-0.723c0.487-0.478,0.735-1.065,0.735-1.763c0-0.702-0.248-1.287-0.735-1.762
		C193.337,106.583,192.739,106.341,192.018,106.341z"/>
	<path fill="#56DB31" d="M171.41,98.152c-0.921-0.68-1.976-1.175-3.157-1.493c-0.398-0.102-0.799-0.186-1.204-0.256
		c-0.794-0.136-1.587-0.209-2.397-0.209c-0.371,0-0.725,0.013-1.071,0.041c-0.353,0.029-0.696,0.058-1.024,0.095
		c-0.812,0.125-1.34,0.382-1.588,0.76c-0.243,0.376-0.376,0.923-0.376,1.641v11.752c0,0.199,0.052,0.33,0.139,0.396
		c0.092,0.066,0.242,0.093,0.445,0.093h2.815c0.255,0,0.423-0.021,0.492-0.073c0.075-0.06,0.115-0.193,0.115-0.416V99.838
		c0.347-0.064,0.712-0.085,1.101-0.085c0.729,0.018,1.401,0.149,1.987,0.399c0.017,0.005,0.034,0.016,0.051,0.023
		c0.094,0.046,0.181,0.088,0.272,0.128c0.019,0.011,0.034,0.017,0.059,0.027c0.296,0.109,0.608,0.168,0.932,0.168
		c0.719,0,1.322-0.242,1.808-0.72c0.395-0.379,0.619-0.832,0.706-1.355C171.531,98.31,171.525,98.242,171.41,98.152z"/>
	<path fill="#56DB31" d="M185.629,97.244c-0.853-0.391-1.784-0.657-2.798-0.814c-1.026-0.157-2.027-0.235-3.018-0.235
		c-1.263,0-2.352,0.194-3.255,0.575c-0.914,0.388-1.662,0.922-2.246,1.604c-0.587,0.681-1.026,1.477-1.31,2.4
		c-0.283,0.918-0.424,1.902-0.424,2.95c0,1.086,0.117,2.068,0.371,2.945c0.243,0.886,0.626,1.645,1.136,2.282
		c0.52,0.631,1.175,1.126,1.974,1.476c0.795,0.346,1.744,0.525,2.846,0.525c0.555,0,1.11-0.037,1.667-0.099
		c0.556-0.063,1.078-0.165,1.552-0.312l0.023,0.164c0,0.531-0.121,0.979-0.377,1.338c-0.243,0.359-0.566,0.652-0.967,0.883
		c-0.318,0.186-0.678,0.333-1.07,0.452c-0.064,0.022-0.135,0.038-0.204,0.063c-0.051,0.018-0.109,0.035-0.162,0.058
		c-0.312,0.134-0.585,0.304-0.812,0.527c-0.225,0.22-0.411,0.479-0.549,0.779c-0.139,0.307-0.209,0.634-0.209,0.979
		c0,0.352,0.07,0.681,0.209,0.981c0.063,0.137,0.133,0.267,0.214,0.379c0.063,0.104,0.139,0.177,0.289,0.151
		c1.229-0.165,2.324-0.427,3.272-0.771c0.401-0.151,0.765-0.309,1.107-0.507c0.486-0.264,0.914-0.573,1.297-0.927
		c0.649-0.609,1.146-1.367,1.478-2.279c0.342-0.906,0.514-2.016,0.514-3.323V98.097c0-0.202-0.034-0.364-0.104-0.483
		C186.011,97.496,185.859,97.371,185.629,97.244z M180.826,107.485c-0.462,0.053-0.805,0.069-1.025,0.069
		c-0.954,0-1.706-0.292-2.245-0.886c-0.539-0.588-0.818-1.592-0.818-3.018c0-0.751,0.082-1.389,0.244-1.906
		c0.15-0.518,0.371-0.932,0.654-1.246c0.283-0.314,0.638-0.543,1.049-0.693c0.416-0.145,0.868-0.223,1.373-0.223
		c0.248,0,0.578,0.026,0.971,0.073c0.401,0.043,0.776,0.123,1.143,0.234v7.306C181.736,107.347,181.285,107.44,180.826,107.485z"/>
	<path fill="#56DB31" d="M116.325,98.277c-0.521-0.672-1.175-1.203-1.976-1.584c-0.804-0.395-1.76-0.582-2.878-0.582
		c-0.551,0-1.118,0.038-1.686,0.107c-0.574,0.075-1.095,0.185-1.575,0.336l-0.022-3.006v-2.213c0-0.045-0.012-0.078-0.018-0.118
		c-0.046-0.261-0.226-0.402-0.562-0.402h-0.857c-0.353,0-0.683,0.061-0.99,0.191c-0.313,0.134-0.585,0.307-0.816,0.532
		c-0.232,0.215-0.412,0.475-0.551,0.776c-0.139,0.304-0.208,0.635-0.208,0.985v0.25v0.819v15.014c0,0.197,0.028,0.365,0.087,0.492
		c0.052,0.129,0.191,0.238,0.411,0.331c0.845,0.385,1.789,0.663,2.837,0.827c1.048,0.163,2.074,0.247,3.07,0.247
		c1.28,0,2.386-0.202,3.307-0.603c0.921-0.404,1.668-0.957,2.248-1.643c0.574-0.686,1.002-1.496,1.269-2.427
		c0.267-0.929,0.4-1.929,0.4-2.993c0-1.048-0.122-2.029-0.366-2.955C117.218,99.739,116.836,98.947,116.325,98.277z
		 M112.757,106.949c-0.591,0.629-1.39,0.938-2.41,0.938c-0.26,0-0.591-0.019-0.996-0.051c-0.405-0.042-0.799-0.117-1.163-0.221
		v-7.698c0.44-0.147,0.891-0.243,1.355-0.292c0.463-0.05,0.811-0.064,1.054-0.064c0.961,0,1.709,0.339,2.247,1.019
		c0.533,0.683,0.805,1.724,0.805,3.124C113.649,105.235,113.348,106.319,112.757,106.949z"/>
	<path fill="#56DB31" d="M132.716,98.277c-0.516-0.672-1.17-1.203-1.969-1.584c-0.798-0.395-1.761-0.582-2.884-0.582
		c-0.551,0-1.113,0.038-1.681,0.107c-0.573,0.075-1.094,0.185-1.574,0.336l-0.024-3.006v-2.213c0-0.045-0.018-0.078-0.024-0.118
		c-0.04-0.261-0.225-0.402-0.555-0.402h-0.858c-0.347,0-0.683,0.061-0.989,0.191c-0.319,0.134-0.591,0.307-0.822,0.532
		c-0.226,0.215-0.411,0.475-0.544,0.776c-0.145,0.304-0.21,0.635-0.21,0.985v0.25v0.819v15.014c0,0.197,0.024,0.365,0.088,0.492
		c0.053,0.129,0.186,0.238,0.411,0.331c0.84,0.385,1.79,0.663,2.838,0.827c1.048,0.163,2.068,0.247,3.058,0.247
		c1.291,0,2.391-0.202,3.313-0.603c0.92-0.404,1.667-0.957,2.252-1.643c0.58-0.686,0.996-1.496,1.268-2.427
		c0.267-0.929,0.4-1.929,0.4-2.993c0-1.048-0.127-2.029-0.359-2.955C133.613,99.739,133.231,98.947,132.716,98.277z
		 M129.154,106.949c-0.585,0.629-1.395,0.938-2.409,0.938c-0.262,0-0.592-0.019-0.997-0.051c-0.411-0.042-0.798-0.117-1.163-0.221
		v-7.698c0.44-0.147,0.891-0.243,1.355-0.292c0.458-0.05,0.81-0.064,1.048-0.064c0.961,0,1.715,0.339,2.253,1.019
		c0.533,0.683,0.799,1.724,0.799,3.124C130.04,105.235,129.745,106.319,129.154,106.949z"/>
	<path fill="#56DB31" d="M100.259,96.47h-0.857c-0.353,0-0.683,0.063-0.996,0.189c-0.307,0.136-0.578,0.309-0.814,0.53
		c-0.226,0.217-0.411,0.483-0.55,0.785c-0.133,0.304-0.203,0.631-0.203,0.981v0.681v0.387v7.836c-0.395,0.056-0.759,0.096-1.1,0.117
		c-0.336,0.014-0.603,0.02-0.788,0.02c-0.649,0-1.176-0.069-1.575-0.214c-0.417-0.15-0.73-0.376-0.944-0.681
		c-0.227-0.301-0.371-0.68-0.447-1.129c-0.075-0.455-0.109-0.979-0.109-1.586v-3.369v-0.994v-3.028c0-0.047-0.012-0.085-0.023-0.125
		c-0.041-0.261-0.226-0.399-0.556-0.399h-0.857c-0.348,0-0.684,0.063-0.991,0.189c-0.318,0.136-0.591,0.309-0.811,0.53
		c-0.237,0.217-0.422,0.483-0.556,0.785c-0.139,0.304-0.209,0.631-0.209,0.981v1.068v4.115c0,1.301,0.128,2.413,0.383,3.322
		c0.26,0.908,0.683,1.652,1.262,2.218c0.58,0.57,1.332,0.987,2.259,1.245c0.927,0.253,2.05,0.39,3.382,0.39
		c0.271,0,0.597-0.008,0.961-0.019c0.366-0.008,0.742-0.026,1.118-0.049c0.377-0.031,0.73-0.069,1.058-0.102
		c0.336-0.038,0.608-0.074,0.834-0.111c0.638-0.146,1.083-0.404,1.333-0.773c0.249-0.366,0.37-0.861,0.37-1.49v-8.746v-0.387v-2.641
		c0-0.047-0.011-0.085-0.011-0.125C100.774,96.609,100.595,96.47,100.259,96.47z"/>
	<path fill="#56DB31" d="M209.61,96.47h-0.862c-0.347,0-0.677,0.063-0.989,0.189c-0.314,0.136-0.586,0.309-0.812,0.53
		c-0.23,0.217-0.417,0.483-0.551,0.785c-0.144,0.304-0.208,0.631-0.208,0.981v0.681v0.387v7.836c-0.387,0.056-0.753,0.096-1.1,0.117
		c-0.344,0.014-0.603,0.02-0.789,0.02c-0.648,0-1.176-0.069-1.582-0.214c-0.404-0.15-0.717-0.376-0.943-0.681
		c-0.22-0.301-0.364-0.68-0.44-1.129c-0.074-0.455-0.115-0.979-0.115-1.586v-3.369v-0.994v-3.028c0-0.047-0.011-0.085-0.017-0.125
		c-0.041-0.261-0.221-0.399-0.551-0.399h-0.862c-0.354,0-0.685,0.063-0.997,0.189c-0.308,0.136-0.584,0.309-0.811,0.53
		c-0.231,0.217-0.417,0.483-0.55,0.785c-0.139,0.304-0.208,0.631-0.208,0.981v1.068v4.115c0,1.301,0.128,2.413,0.382,3.322
		c0.261,0.908,0.677,1.652,1.257,2.218c0.579,0.57,1.338,0.987,2.264,1.245c0.929,0.253,2.057,0.39,3.377,0.39
		c0.277,0,0.603-0.008,0.968-0.019c0.371-0.008,0.74-0.026,1.117-0.049c0.376-0.031,0.73-0.069,1.06-0.102
		c0.33-0.038,0.608-0.074,0.829-0.111c0.643-0.146,1.089-0.404,1.336-0.773c0.251-0.366,0.371-0.861,0.371-1.49v-8.746v-0.387
		v-2.641c0-0.047-0.01-0.085-0.021-0.125C210.128,96.609,209.941,96.47,209.61,96.47z"/>
	<path fill="#56DB31" d="M224.235,97.394c-0.927-0.852-2.386-1.283-4.391-1.283c-0.243,0-0.486,0.006-0.723,0.014
		c-0.667,0.029-1.326,0.087-1.999,0.174c-0.903,0.133-1.772,0.344-2.605,0.64c-0.146,0.056-0.237,0.119-0.291,0.211
		c-0.022,0.047-0.028,0.119-0.016,0.221c0,0.029,0.011,0.066,0.011,0.101c0.011,0.078,0.035,0.147,0.051,0.226
		c0.035,0.112,0.07,0.228,0.123,0.329c0.133,0.304,0.318,0.568,0.549,0.787c0.232,0.218,0.5,0.395,0.812,0.52
		c0.313,0.131,0.648,0.198,0.997,0.198c0.179,0,0.365-0.012,0.533-0.04c0.353-0.05,0.699-0.085,1.048-0.114
		c0.343-0.022,0.659-0.043,0.932-0.043c0.516,0,0.928,0.062,1.246,0.168c0.307,0.111,0.549,0.259,0.729,0.429
		c0.169,0.174,0.284,0.385,0.342,0.619c0.058,0.243,0.08,0.486,0.08,0.747v0.443h-3.035c-0.989,0-1.847,0.119-2.57,0.368
		c-0.73,0.255-1.332,0.594-1.813,1.034c-0.476,0.442-0.835,0.96-1.071,1.558c-0.242,0.606-0.36,1.254-0.36,1.969
		c0,0.646,0.1,1.248,0.303,1.813c0.202,0.559,0.549,1.049,1.047,1.463c0.499,0.414,1.152,0.738,1.964,0.979
		c0.815,0.237,1.853,0.356,3.099,0.356c0.457,0,0.943-0.019,1.459-0.052c0.515-0.038,1.02-0.097,1.523-0.166
		c0.509-0.074,1.003-0.176,1.488-0.307c0.486-0.127,0.938-0.293,1.362-0.496c0.254-0.146,0.416-0.304,0.486-0.465
		c0.063-0.168,0.092-0.371,0.092-0.607v-8.002C225.637,99.513,225.174,98.248,224.235,97.394z M221.641,107.751
		c-0.184,0.072-0.393,0.131-0.614,0.185c-0.219,0.042-0.435,0.08-0.644,0.104c-0.214,0.028-0.411,0.045-0.596,0.059
		c-0.181,0.01-0.329,0.01-0.438,0.01c-0.736,0-1.315-0.125-1.75-0.386c-0.435-0.257-0.648-0.702-0.648-1.35
		c0-0.442,0.08-0.796,0.248-1.054c0.169-0.254,0.376-0.451,0.62-0.588c0.249-0.139,0.521-0.227,0.809-0.264
		c0.301-0.037,0.574-0.053,0.83-0.053h2.183V107.751z"/>
</g>
<path fill="#00CFFF" d="M28.125,105.85c4.546,2.516,11.201-0.79,14.867-7.396c3.666-6.609,2.948-14.01-1.598-16.529
	c-4.546-2.525-11.201,0.787-14.867,7.391C22.861,95.923,23.579,103.324,28.125,105.85z"/>
<path fill="#E5E5E5" d="M48.408,45.48l1.234-0.712c-2.89-1.528-5.624-3.281-8.183-5.241c-0.528,0.399-2.746,2.053-4.848,3.665
	C40.462,42.483,48.408,45.48,48.408,45.48z"/>
<path fill="#56DB31" d="M134.123,76.614c-1.321-4.764-5.161-15.939-13.494-23.15c0.608-0.442,1.251-0.92,1.934-1.446
	c2.092-1.6,3.88-2.728,7.182-2.275c1.094,0.152,1.094-0.731,0.602-1.476c-1.603-2.456-4.215-7.342-15.852-6.43
	c-16.229,1.274-36.48,20.11-40.865,30.073c-0.405,0.925,0.127,1.843,1.176,0.913c2.386-2.122,7.465-6.967,16.326-11.093
	c5.38-2.508,9.167-3.033,15.161-1.674c13.385,3.028,22.726,15.188,26.416,18.476C134.037,79.714,134.598,78.314,134.123,76.614z"/>
<path fill="#E5E5E5" d="M113.394,48.681c2.641,1.149,5.138,2.979,7.234,4.783c0.568-0.416,1.291-0.955,1.934-1.446
	c-0.8-1.139-6.041-3.414-8.803-3.507L113.394,48.681z"/>
<path fill="#56DB31" d="M102.442,59.406c5.236,5.995,8.822,12.449,10.518,14.928c0.8,1.162,1.517,0.084,1.535-1.39
	c0.023-2.363-0.411-6.217-1.593-10.599c-2.068-0.979-4.257-1.774-6.574-2.299C104.927,59.734,103.653,59.517,102.442,59.406z"/>
<path fill="#E5E5E5" d="M102.442,59.406c1.061,1.216,2.057,2.447,2.978,3.667c1.361-0.258,3.828-0.794,7.628-0.176
	c-0.046-0.181-0.098-0.368-0.145-0.551c-2.068-0.979-4.257-1.774-6.574-2.299C104.927,59.734,103.653,59.517,102.442,59.406z"/>
<g>
	<path fill="#7C98AB" d="M93.148,126.12c0.133,0,0.179,0.064,0.128,0.185l-2.195,6.094c-0.099,0.271-0.215,0.501-0.336,0.687
		c-0.128,0.182-0.272,0.333-0.44,0.443c-0.168,0.111-0.359,0.193-0.573,0.242c-0.215,0.05-0.463,0.076-0.742,0.076
		c-0.145,0-0.301-0.016-0.48-0.035c-0.18-0.02-0.36-0.061-0.551-0.116c-0.087-0.028-0.151-0.056-0.173-0.079
		c-0.023-0.027-0.029-0.08-0.018-0.158l0.173-0.889c0.012-0.079,0.04-0.122,0.076-0.127c0.035-0.006,0.092-0.003,0.173,0.008
		c0.117,0.016,0.226,0.029,0.313,0.035c0.087,0.005,0.18,0.008,0.272,0.008c0.122,0,0.227-0.003,0.319-0.014
		c0.087-0.012,0.168-0.035,0.237-0.074c0.075-0.038,0.133-0.094,0.185-0.16c0.047-0.07,0.093-0.163,0.14-0.283l0.167-0.484h-0.278
		c-0.168,0-0.29-0.028-0.371-0.083c-0.075-0.059-0.15-0.187-0.226-0.377l-1.888-4.694c-0.035-0.069-0.035-0.122,0-0.154
		c0.035-0.032,0.087-0.049,0.15-0.049h1.246c0.121,0,0.203,0.017,0.243,0.043c0.046,0.029,0.081,0.085,0.11,0.174l0.792,2.176
		l0.597,1.766h0.075l0.567-1.854l0.678-2.078c0.035-0.093,0.069-0.154,0.104-0.184c0.034-0.026,0.11-0.043,0.226-0.043H93.148z"/>
	<path fill="#7C98AB" d="M98.776,129.655c0.185,0.063,0.342,0.141,0.464,0.221c0.121,0.08,0.22,0.176,0.301,0.283
		c0.075,0.109,0.139,0.229,0.185,0.359c0.046,0.131,0.092,0.277,0.133,0.436l0.666,2.484c0.012,0.038,0.018,0.08,0.005,0.133
		c-0.011,0.053-0.063,0.081-0.156,0.081h-1.239c-0.041,0-0.076-0.005-0.122-0.023c-0.041-0.011-0.075-0.056-0.092-0.128
		l-0.655-2.302c-0.058-0.188-0.127-0.339-0.203-0.456c-0.068-0.119-0.161-0.211-0.271-0.27c-0.104-0.067-0.231-0.111-0.371-0.137
		c-0.145-0.023-0.307-0.037-0.498-0.037H96.05l0.012,3.182c0,0.078-0.017,0.127-0.046,0.143c-0.03,0.021-0.075,0.028-0.151,0.028
		h-1.239c-0.064,0-0.116-0.007-0.145-0.028c-0.035-0.016-0.047-0.064-0.047-0.143v-7.158c0-0.078,0.012-0.125,0.047-0.141
		c0.029-0.021,0.081-0.03,0.145-0.03h1.251c0.075,0,0.122,0.009,0.15,0.03c0.029,0.016,0.035,0.063,0.023,0.141v2.733h0.857
		c0.104,0,0.22-0.009,0.336-0.026c0.116-0.021,0.231-0.061,0.348-0.122c0.116-0.066,0.219-0.161,0.318-0.292
		c0.093-0.127,0.172-0.301,0.23-0.523l0.48-1.811c0.012-0.071,0.041-0.116,0.086-0.13c0.047-0.013,0.093-0.021,0.128-0.021h1.199
		c0.092,0,0.145,0.026,0.156,0.079c0.012,0.054,0.006,0.101-0.005,0.136l-0.492,1.919c-0.145,0.612-0.446,1.058-0.915,1.339V129.655
		z"/>
	<path fill="#7C98AB" d="M103.41,133.427c0,0.102-0.018,0.162-0.047,0.189c-0.034,0.023-0.104,0.036-0.209,0.036h-1.123
		c-0.087,0-0.151-0.015-0.191-0.047c-0.035-0.034-0.059-0.095-0.059-0.179v-6.631c0-0.199,0.047-0.36,0.128-0.476
		c0.087-0.119,0.26-0.177,0.515-0.177h2.624c0.388,0,0.735,0.058,1.048,0.177c0.307,0.115,0.574,0.28,0.787,0.485
		c0.22,0.206,0.388,0.456,0.499,0.742c0.116,0.283,0.174,0.6,0.174,0.942c0,0.184-0.03,0.417-0.087,0.688
		c-0.058,0.274-0.18,0.544-0.371,0.806c-0.186,0.26-0.463,0.48-0.823,0.668c-0.359,0.186-0.839,0.278-1.442,0.278h-1.424V133.427z
		 M105.877,128.597c0-0.102-0.018-0.209-0.046-0.328c-0.029-0.115-0.081-0.229-0.168-0.332c-0.081-0.102-0.191-0.189-0.331-0.256
		c-0.139-0.069-0.312-0.102-0.527-0.102h-1.395v2.033h1.407c0.359,0,0.631-0.096,0.799-0.291
		C105.79,129.124,105.877,128.881,105.877,128.597z"/>
	<path fill="#7C98AB" d="M112.346,132.088h-2.456l-0.417,1.362c-0.023,0.072-0.052,0.121-0.087,0.155
		c-0.041,0.032-0.11,0.047-0.214,0.047h-1.25c-0.082,0-0.128-0.023-0.145-0.065c-0.018-0.041-0.018-0.092-0.006-0.148l2.23-6.719
		c0.035-0.119,0.075-0.217,0.122-0.293c0.046-0.074,0.099-0.135,0.162-0.179c0.058-0.042,0.133-0.069,0.214-0.09
		c0.081-0.019,0.174-0.026,0.284-0.026h0.643c0.122,0,0.226,0.005,0.307,0.018c0.087,0.009,0.162,0.037,0.226,0.08
		c0.069,0.041,0.121,0.102,0.168,0.18c0.046,0.079,0.092,0.184,0.133,0.31l2.23,6.719c0.011,0.043,0.011,0.09,0,0.139
		c-0.017,0.049-0.064,0.075-0.14,0.075h-1.274c-0.081,0-0.145-0.007-0.203-0.028c-0.052-0.016-0.086-0.064-0.11-0.143
		L112.346,132.088z M110.278,130.771h1.68l-0.406-1.366l-0.394-1.534h-0.063l-0.412,1.534L110.278,130.771z"/>
	<path fill="#7C98AB" d="M116.204,124.87c0,0.106-0.018,0.205-0.064,0.298c-0.04,0.092-0.098,0.177-0.174,0.249
		c-0.075,0.068-0.162,0.127-0.26,0.17c-0.094,0.041-0.197,0.063-0.302,0.063c-0.11,0-0.209-0.021-0.301-0.063
		c-0.092-0.043-0.18-0.102-0.254-0.17c-0.07-0.072-0.133-0.157-0.174-0.249c-0.041-0.093-0.064-0.191-0.064-0.298
		c0-0.109,0.023-0.209,0.064-0.307c0.04-0.097,0.104-0.182,0.174-0.254c0.075-0.072,0.162-0.126,0.254-0.17
		c0.092-0.041,0.191-0.064,0.301-0.064c0.104,0,0.208,0.023,0.302,0.064c0.098,0.044,0.185,0.098,0.26,0.17
		c0.076,0.072,0.134,0.157,0.174,0.254C116.186,124.661,116.204,124.761,116.204,124.87z M117.362,133.427
		c0,0.096-0.017,0.153-0.046,0.182c-0.029,0.029-0.104,0.044-0.208,0.044h-1.136c-0.087,0-0.15-0.015-0.185-0.047
		c-0.041-0.034-0.064-0.095-0.064-0.179v-7.045c0-0.09,0.023-0.148,0.064-0.181c0.035-0.032,0.098-0.049,0.185-0.049h1.136
		c0.104,0,0.179,0.014,0.208,0.044c0.029,0.028,0.046,0.09,0.046,0.186V133.427z M118.405,124.87c0,0.106-0.024,0.205-0.069,0.298
		c-0.041,0.092-0.099,0.177-0.174,0.249c-0.075,0.068-0.157,0.127-0.25,0.17c-0.097,0.041-0.195,0.063-0.3,0.063
		c-0.111,0-0.209-0.021-0.308-0.063c-0.097-0.043-0.179-0.102-0.254-0.17c-0.075-0.072-0.133-0.157-0.18-0.249
		c-0.041-0.093-0.063-0.191-0.063-0.298c0-0.217,0.081-0.4,0.243-0.561c0.157-0.154,0.347-0.234,0.562-0.234
		c0.104,0,0.203,0.023,0.3,0.064c0.093,0.044,0.175,0.098,0.25,0.17c0.075,0.072,0.133,0.157,0.174,0.254
		C118.381,124.661,118.405,124.761,118.405,124.87z"/>
	<path fill="#7C98AB" d="M125.291,133.609c-0.035,0.029-0.104,0.044-0.207,0.044h-1.131c-0.092,0-0.155-0.015-0.19-0.047
		c-0.034-0.034-0.052-0.095-0.052-0.179v-2.998h-2.908v2.998c0,0.096-0.011,0.153-0.045,0.182c-0.029,0.029-0.099,0.044-0.209,0.044
		h-1.135c-0.087,0-0.145-0.015-0.186-0.047c-0.04-0.034-0.057-0.095-0.057-0.179v-7.045c0-0.09,0.017-0.148,0.057-0.181
		c0.042-0.032,0.099-0.049,0.186-0.049h1.135c0.111,0,0.18,0.014,0.209,0.044c0.035,0.028,0.045,0.09,0.045,0.186v2.663h2.908
		v-2.663c0-0.09,0.018-0.148,0.052-0.181c0.035-0.032,0.098-0.049,0.19-0.049h1.131c0.103,0,0.172,0.014,0.207,0.044
		c0.029,0.028,0.045,0.09,0.045,0.186v7.045C125.336,133.523,125.32,133.58,125.291,133.609z"/>
	<path fill="#7C98AB" d="M130.347,132.29c0.343,0,0.65-0.04,0.909-0.12c0.268-0.085,0.51-0.169,0.741-0.253
		c0.1-0.043,0.168-0.054,0.216-0.027c0.04,0.024,0.08,0.077,0.115,0.156l0.364,0.771c0.052,0.101,0.07,0.173,0.052,0.226
		c-0.011,0.049-0.052,0.092-0.115,0.126c-0.388,0.237-0.793,0.397-1.216,0.479c-0.424,0.082-0.846,0.123-1.257,0.123
		c-0.592,0-1.096-0.086-1.517-0.264c-0.424-0.176-0.776-0.424-1.049-0.753c-0.278-0.333-0.48-0.731-0.614-1.21
		c-0.128-0.473-0.196-1.007-0.196-1.6c0-0.583,0.086-1.115,0.253-1.593c0.163-0.479,0.4-0.889,0.701-1.234
		c0.296-0.342,0.661-0.605,1.082-0.793c0.429-0.184,0.898-0.277,1.414-0.277c0.365,0,0.718,0.031,1.072,0.091
		c0.347,0.062,0.689,0.184,1.024,0.371c0.08,0.044,0.127,0.085,0.138,0.128c0.019,0.043,0,0.125-0.051,0.246l-0.33,0.741
		c-0.041,0.099-0.074,0.159-0.117,0.181c-0.04,0.021-0.109,0.014-0.208-0.021c-0.254-0.096-0.497-0.162-0.718-0.211
		c-0.219-0.047-0.464-0.066-0.741-0.066c-0.289,0-0.551,0.061-0.776,0.184c-0.22,0.126-0.411,0.3-0.568,0.518
		c-0.15,0.219-0.266,0.475-0.347,0.77c-0.074,0.298-0.114,0.62-0.114,0.968c0,0.352,0.027,0.669,0.091,0.954
		c0.058,0.285,0.163,0.533,0.307,0.742c0.145,0.205,0.343,0.368,0.574,0.48C129.704,132.236,129.999,132.29,130.347,132.29z"/>
	<path fill="#7C98AB" d="M134.645,133.652c-0.256,0-0.43-0.053-0.51-0.157c-0.088-0.102-0.133-0.269-0.133-0.495v-6.653
		c0-0.136,0.074-0.203,0.213-0.203h1.193c0.099,0,0.162,0.015,0.186,0.043c0.021,0.027,0.04,0.081,0.04,0.16v2.519h1.569
		c0.638,0,1.135,0.091,1.501,0.27c0.365,0.187,0.637,0.403,0.816,0.661c0.179,0.256,0.289,0.52,0.329,0.793
		c0.047,0.268,0.064,0.495,0.064,0.674c0,0.342-0.064,0.661-0.196,0.953c-0.135,0.293-0.313,0.547-0.545,0.756
		c-0.231,0.211-0.504,0.377-0.816,0.498c-0.309,0.121-0.645,0.183-1.002,0.183H134.645z M138.235,131.208
		c0-0.283-0.087-0.519-0.262-0.706c-0.178-0.186-0.434-0.276-0.775-0.276h-1.563v1.99h1.553c0.197,0,0.365-0.035,0.504-0.102
		c0.133-0.066,0.242-0.15,0.322-0.251c0.083-0.099,0.141-0.208,0.176-0.328C138.218,131.417,138.235,131.309,138.235,131.208z"/>
	<path fill="#7C98AB" d="M145.562,129.655c0.185,0.063,0.336,0.141,0.457,0.221c0.122,0.08,0.226,0.176,0.301,0.283
		c0.082,0.109,0.145,0.229,0.187,0.359c0.051,0.131,0.091,0.277,0.139,0.436l0.659,2.484c0.018,0.038,0.018,0.08,0.006,0.133
		c-0.012,0.053-0.062,0.081-0.15,0.081h-1.245c-0.035,0-0.075-0.005-0.116-0.023c-0.046-0.011-0.074-0.056-0.099-0.128l-0.654-2.302
		c-0.058-0.188-0.121-0.339-0.195-0.456c-0.076-0.119-0.169-0.211-0.273-0.27c-0.11-0.067-0.231-0.111-0.377-0.137
		c-0.145-0.023-0.307-0.037-0.491-0.037h-0.88l0.01,3.182c0,0.078-0.01,0.127-0.04,0.143c-0.029,0.021-0.08,0.028-0.149,0.028
		h-1.246c-0.064,0-0.11-0.007-0.145-0.028c-0.028-0.016-0.046-0.064-0.046-0.143v-7.158c0-0.078,0.018-0.125,0.046-0.141
		c0.034-0.021,0.081-0.03,0.145-0.03h1.257c0.069,0,0.115,0.009,0.15,0.03c0.024,0.016,0.034,0.063,0.019,0.141v2.733h0.856
		c0.108,0,0.22-0.009,0.336-0.026c0.122-0.021,0.237-0.061,0.354-0.122c0.11-0.066,0.22-0.161,0.312-0.292
		c0.099-0.127,0.173-0.301,0.231-0.523l0.48-1.811c0.017-0.071,0.047-0.116,0.093-0.13c0.046-0.013,0.086-0.021,0.121-0.021h1.2
		c0.092,0,0.145,0.026,0.154,0.079c0.013,0.054,0.013,0.101-0.005,0.136l-0.491,1.919c-0.145,0.612-0.447,1.058-0.909,1.339V129.655
		z"/>
	<path fill="#7C98AB" d="M152.819,132.088h-2.456l-0.417,1.362c-0.018,0.072-0.053,0.121-0.093,0.155
		c-0.034,0.032-0.104,0.047-0.202,0.047h-1.257c-0.077,0-0.127-0.023-0.145-0.065c-0.017-0.041-0.017-0.092-0.006-0.148l2.23-6.719
		c0.033-0.119,0.074-0.217,0.122-0.293c0.045-0.074,0.098-0.135,0.162-0.179c0.057-0.042,0.132-0.069,0.214-0.09
		c0.08-0.019,0.18-0.026,0.283-0.026h0.643c0.122,0,0.227,0.005,0.314,0.018c0.08,0.009,0.154,0.037,0.219,0.08
		c0.063,0.041,0.122,0.102,0.168,0.18c0.046,0.079,0.093,0.184,0.133,0.31l2.23,6.719c0.013,0.043,0.013,0.09,0,0.139
		c-0.018,0.049-0.063,0.075-0.138,0.075h-1.274c-0.082,0-0.145-0.007-0.198-0.028c-0.056-0.016-0.091-0.064-0.114-0.143
		L152.819,132.088z M150.75,130.771h1.681l-0.405-1.366l-0.396-1.534h-0.061l-0.412,1.534L150.75,130.771z"/>
	<path fill="#7C98AB" d="M159.843,133.652c-0.26,0-0.433-0.05-0.514-0.151c-0.082-0.098-0.129-0.262-0.129-0.491v-6.128
		c0-0.249,0.053-0.434,0.151-0.553c0.1-0.118,0.278-0.177,0.539-0.177h4.175c0.082,0,0.133,0.017,0.156,0.049
		c0.024,0.032,0.035,0.093,0.035,0.188v0.953c0,0.08-0.011,0.133-0.035,0.162c-0.023,0.026-0.074,0.043-0.156,0.043h-3.236v1.326
		h1.564c0.422,0,0.786,0.045,1.083,0.127c0.301,0.088,0.55,0.201,0.758,0.339c0.203,0.14,0.365,0.296,0.481,0.472
		c0.115,0.178,0.203,0.351,0.26,0.528c0.059,0.182,0.1,0.353,0.117,0.521c0.017,0.171,0.023,0.313,0.023,0.435
		c0,0.345-0.064,0.657-0.196,0.944c-0.133,0.285-0.314,0.533-0.544,0.741c-0.232,0.214-0.504,0.38-0.818,0.496
		c-0.313,0.114-0.648,0.176-1.014,0.176H159.843z M163.423,131.208c0-0.278-0.087-0.51-0.26-0.694
		c-0.181-0.186-0.43-0.278-0.77-0.278h-1.564v1.992h1.558c0.196,0,0.365-0.031,0.504-0.101c0.134-0.069,0.238-0.154,0.318-0.253
		c0.074-0.102,0.133-0.211,0.169-0.333C163.405,131.42,163.423,131.309,163.423,131.208z"/>
	<path fill="#7C98AB" d="M168.068,133.609c-0.029,0.029-0.099,0.044-0.209,0.044h-1.135c-0.08,0-0.144-0.015-0.185-0.047
		c-0.042-0.034-0.059-0.095-0.059-0.179v-7.045c0-0.09,0.017-0.148,0.059-0.181c0.04-0.032,0.104-0.049,0.185-0.049h1.135
		c0.11,0,0.18,0.014,0.209,0.044c0.035,0.028,0.052,0.09,0.052,0.186v7.045C168.12,133.523,168.103,133.58,168.068,133.609z"/>
	<path fill="#7C98AB" d="M171.543,133.427c0,0.102-0.018,0.162-0.047,0.189c-0.035,0.023-0.104,0.036-0.208,0.036h-1.123
		c-0.088,0-0.152-0.015-0.192-0.047c-0.04-0.034-0.056-0.095-0.056-0.179v-6.631c0-0.199,0.04-0.36,0.126-0.476
		c0.087-0.119,0.261-0.177,0.516-0.177h2.623c0.389,0,0.736,0.058,1.049,0.177c0.307,0.115,0.573,0.28,0.788,0.485
		c0.22,0.206,0.387,0.456,0.497,0.742c0.116,0.283,0.174,0.6,0.174,0.942c0,0.184-0.027,0.417-0.087,0.688
		c-0.058,0.274-0.179,0.544-0.369,0.806c-0.186,0.26-0.465,0.48-0.822,0.668c-0.36,0.186-0.841,0.278-1.443,0.278h-1.425V133.427z
		 M174.011,128.597c0-0.102-0.018-0.209-0.047-0.328c-0.028-0.115-0.08-0.229-0.162-0.332c-0.087-0.102-0.197-0.189-0.336-0.256
		c-0.138-0.069-0.314-0.102-0.527-0.102h-1.395v2.033h1.402c0.364,0,0.637-0.096,0.804-0.291
		C173.924,129.124,174.011,128.881,174.011,128.597z"/>
	<path fill="#7C98AB" d="M178.04,129.605c-0.247-0.131-0.438-0.311-0.578-0.545c-0.139-0.229-0.248-0.496-0.318-0.794l-0.493-1.919
		c-0.01-0.035-0.018-0.082-0.005-0.136c0.012-0.053,0.065-0.079,0.155-0.079H178c0.035,0,0.076,0.008,0.122,0.021
		c0.047,0.014,0.081,0.059,0.093,0.13l0.48,1.811c0.058,0.223,0.133,0.396,0.221,0.523c0.093,0.131,0.185,0.226,0.288,0.292
		c0.105,0.061,0.216,0.102,0.33,0.122c0.112,0.018,0.227,0.026,0.331,0.026h0.77v-2.733c-0.013-0.078-0.006-0.125,0.023-0.141
		c0.028-0.021,0.08-0.03,0.15-0.03h1.239c0.064,0,0.116,0.009,0.145,0.03c0.035,0.016,0.053,0.063,0.053,0.141v2.733h0.759
		c0.105,0,0.22-0.009,0.33-0.026c0.116-0.021,0.225-0.061,0.329-0.122c0.105-0.066,0.198-0.161,0.29-0.292
		c0.088-0.127,0.162-0.301,0.221-0.523l0.481-1.811c0.01-0.071,0.04-0.116,0.086-0.13c0.052-0.013,0.093-0.021,0.128-0.021h1.21
		c0.093,0,0.145,0.026,0.156,0.079c0.006,0.054,0.006,0.101-0.006,0.136l-0.486,1.919c-0.14,0.612-0.446,1.058-0.909,1.339v0.051
		c0.185,0.063,0.342,0.141,0.463,0.221c0.121,0.08,0.221,0.176,0.302,0.283c0.075,0.109,0.14,0.229,0.186,0.359
		c0.046,0.131,0.092,0.277,0.132,0.436l0.667,2.484c0.011,0.038,0.011,0.08,0.005,0.133c-0.01,0.053-0.063,0.081-0.156,0.081h-1.285
		c-0.035,0-0.075-0.005-0.115-0.023c-0.046-0.011-0.075-0.056-0.1-0.128l-0.618-2.302c-0.06-0.188-0.123-0.339-0.191-0.456
		c-0.07-0.119-0.15-0.211-0.249-0.27c-0.105-0.067-0.221-0.111-0.36-0.137c-0.138-0.023-0.301-0.037-0.486-0.037h-0.781v3.182
		c0,0.078-0.018,0.127-0.053,0.143c-0.028,0.021-0.08,0.028-0.145,0.028h-1.223c-0.069,0-0.12-0.007-0.145-0.028
		c-0.028-0.016-0.046-0.064-0.046-0.143V130.3h-0.781c-0.186,0-0.348,0.014-0.487,0.037c-0.14,0.025-0.26,0.069-0.365,0.137
		c-0.105,0.059-0.191,0.15-0.26,0.27c-0.075,0.117-0.133,0.269-0.187,0.456l-0.618,2.302c-0.023,0.072-0.054,0.117-0.1,0.128
		c-0.04,0.019-0.08,0.023-0.114,0.023h-1.275c-0.092,0-0.145-0.028-0.156-0.081c-0.011-0.053-0.011-0.095,0.006-0.133l0.666-2.484
		c0.04-0.145,0.088-0.281,0.133-0.414c0.047-0.131,0.109-0.253,0.186-0.365c0.081-0.107,0.18-0.209,0.301-0.293
		c0.123-0.086,0.273-0.163,0.457-0.227V129.605z"/>
	<path fill="#7C98AB" d="M192.074,132.088h-2.455l-0.418,1.362c-0.023,0.072-0.051,0.121-0.091,0.155
		c-0.035,0.032-0.104,0.047-0.211,0.047h-1.25c-0.082,0-0.127-0.023-0.145-0.065c-0.018-0.041-0.018-0.092-0.005-0.148l2.228-6.719
		c0.035-0.119,0.075-0.217,0.122-0.293c0.047-0.074,0.098-0.135,0.162-0.179c0.058-0.042,0.132-0.069,0.214-0.09
		c0.08-0.019,0.175-0.026,0.284-0.026h0.643c0.122,0,0.221,0.005,0.307,0.018c0.088,0.009,0.162,0.037,0.226,0.08
		c0.065,0.041,0.12,0.102,0.169,0.18c0.045,0.079,0.092,0.184,0.132,0.31l2.23,6.719c0.011,0.043,0.011,0.09,0,0.139
		c-0.019,0.049-0.064,0.075-0.139,0.075h-1.275c-0.08,0-0.145-0.007-0.202-0.028c-0.053-0.016-0.088-0.064-0.109-0.143
		L192.074,132.088z M190.006,130.771h1.681l-0.405-1.366l-0.395-1.534h-0.069l-0.406,1.534L190.006,130.771z"/>
	<path fill="#7C98AB" d="M88.347,147.353c-0.267,0-0.435-0.052-0.516-0.15c-0.087-0.102-0.127-0.264-0.127-0.493v-6.126
		c0-0.251,0.052-0.436,0.15-0.551c0.099-0.119,0.277-0.178,0.539-0.178h4.176c0.075,0,0.128,0.016,0.156,0.047
		c0.024,0.035,0.035,0.097,0.035,0.19v0.95c0,0.078-0.011,0.133-0.035,0.16c-0.028,0.031-0.081,0.043-0.156,0.043h-3.238v1.33h1.564
		c0.423,0,0.781,0.039,1.083,0.13c0.301,0.083,0.551,0.196,0.754,0.336c0.208,0.142,0.37,0.298,0.486,0.472s0.203,0.354,0.261,0.529
		c0.058,0.181,0.092,0.355,0.11,0.52c0.024,0.168,0.029,0.313,0.029,0.434c0,0.342-0.065,0.658-0.197,0.94
		c-0.133,0.288-0.313,0.536-0.544,0.747c-0.232,0.21-0.504,0.375-0.816,0.493c-0.313,0.12-0.649,0.177-1.014,0.177H88.347z
		 M91.927,144.911c0-0.277-0.087-0.512-0.261-0.698c-0.18-0.185-0.434-0.278-0.771-0.278h-1.564v1.993h1.552
		c0.203,0,0.371-0.034,0.504-0.102c0.139-0.066,0.243-0.149,0.324-0.251c0.076-0.099,0.133-0.213,0.168-0.334
		C91.909,145.12,91.927,145.01,91.927,144.911z"/>
	<path fill="#7C98AB" d="M96.033,140.573c0.017-0.252,0.069-0.432,0.162-0.548c0.092-0.115,0.266-0.171,0.521-0.171h3.844
		c0.261,0,0.44,0.059,0.539,0.178c0.098,0.115,0.15,0.295,0.15,0.541v6.588c0,0.079-0.012,0.127-0.04,0.154
		c-0.024,0.023-0.087,0.037-0.186,0.037h-1.188c-0.081,0-0.133-0.014-0.168-0.037c-0.034-0.027-0.046-0.075-0.046-0.154v-5.893
		h-2.088l-0.047,0.749c-0.052,0.792-0.11,1.498-0.168,2.109c-0.058,0.616-0.162,1.15-0.313,1.605
		c-0.151,0.451-0.371,0.831-0.667,1.132c-0.301,0.307-0.712,0.544-1.239,0.716c-0.082,0.028-0.145,0.034-0.197,0.02
		c-0.052-0.015-0.098-0.063-0.133-0.15l-0.364-0.803c-0.029-0.066-0.035-0.124-0.023-0.18c0.018-0.061,0.064-0.106,0.14-0.141
		c0.278-0.134,0.503-0.297,0.671-0.48c0.168-0.189,0.301-0.436,0.394-0.739c0.098-0.31,0.168-0.698,0.214-1.165
		c0.046-0.467,0.093-1.048,0.133-1.739L96.033,140.573z"/>
	<path fill="#7C98AB" d="M106.995,145.789h-2.455l-0.418,1.36c-0.023,0.069-0.052,0.125-0.087,0.154
		c-0.041,0.031-0.11,0.049-0.214,0.049h-1.251c-0.081,0-0.128-0.02-0.145-0.064c-0.018-0.043-0.018-0.092-0.005-0.15l2.229-6.715
		c0.035-0.121,0.075-0.22,0.122-0.299c0.046-0.072,0.099-0.131,0.163-0.174c0.058-0.043,0.133-0.074,0.215-0.089
		c0.08-0.02,0.173-0.028,0.283-0.028h0.642c0.122,0,0.226,0.005,0.307,0.014c0.087,0.015,0.162,0.037,0.225,0.08
		c0.07,0.047,0.122,0.105,0.168,0.184c0.047,0.081,0.093,0.184,0.133,0.313l2.23,6.715c0.011,0.041,0.011,0.087,0,0.14
		c-0.018,0.048-0.063,0.075-0.139,0.075h-1.274c-0.081,0-0.145-0.009-0.203-0.027c-0.052-0.02-0.087-0.064-0.109-0.146
		L106.995,145.789z M104.927,144.472h1.68l-0.405-1.364l-0.4-1.541h-0.063l-0.406,1.541L104.927,144.472z"/>
	<path fill="#7C98AB" d="M111.929,147.128c0,0.097-0.012,0.16-0.04,0.188c-0.03,0.023-0.099,0.037-0.203,0.037h-1.135
		c-0.087,0-0.151-0.018-0.186-0.049c-0.04-0.029-0.063-0.091-0.063-0.176v-5.301c0-0.261,0.035-0.506,0.104-0.741
		c0.063-0.237,0.179-0.445,0.33-0.632c0.157-0.185,0.353-0.336,0.608-0.443c0.249-0.111,0.557-0.168,0.933-0.168h3.081
		c0.093,0,0.151,0.018,0.18,0.057c0.022,0.034,0.034,0.102,0.034,0.203v0.908c0,0.092-0.012,0.153-0.041,0.188
		c-0.028,0.032-0.087,0.047-0.173,0.047h-2.727c-0.279,0-0.47,0.063-0.563,0.188c-0.092,0.125-0.139,0.283-0.139,0.479V147.128z"/>
	<path fill="#7C98AB" d="M122.563,143.583c0,0.613-0.064,1.16-0.196,1.635c-0.135,0.48-0.342,0.889-0.62,1.225
		c-0.278,0.334-0.626,0.592-1.048,0.766c-0.424,0.174-0.92,0.264-1.501,0.264c-1.105,0-1.929-0.336-2.467-1.006
		c-0.539-0.672-0.811-1.623-0.811-2.852c0-0.603,0.076-1.141,0.232-1.621c0.15-0.484,0.371-0.891,0.661-1.227
		c0.283-0.328,0.631-0.584,1.037-0.764c0.405-0.178,0.868-0.266,1.384-0.266c0.556,0,1.041,0.088,1.459,0.266
		c0.417,0.18,0.763,0.436,1.043,0.764c0.272,0.336,0.48,0.738,0.619,1.213C122.494,142.458,122.563,142.991,122.563,143.583z
		 M120.861,143.614c0-0.322-0.023-0.629-0.069-0.922c-0.047-0.291-0.133-0.55-0.255-0.773c-0.122-0.217-0.283-0.395-0.492-0.525
		c-0.209-0.134-0.477-0.201-0.805-0.201c-0.267,0-0.504,0.065-0.707,0.189c-0.208,0.123-0.376,0.291-0.509,0.507
		c-0.139,0.217-0.238,0.466-0.301,0.749c-0.063,0.287-0.099,0.591-0.099,0.913c0,0.376,0.029,0.718,0.081,1.017
		c0.053,0.301,0.146,0.558,0.267,0.77c0.128,0.217,0.296,0.382,0.499,0.495c0.208,0.116,0.469,0.171,0.781,0.171
		c0.307,0,0.568-0.067,0.77-0.2c0.209-0.13,0.377-0.307,0.499-0.523c0.121-0.214,0.208-0.472,0.26-0.759
		C120.832,144.232,120.861,143.927,120.861,143.614z"/>
	<path fill="#7C98AB" d="M124.88,147.353c-0.013,0.258-0.029,0.512-0.053,0.773c-0.023,0.255-0.04,0.512-0.063,0.77
		c-0.011,0.15-0.086,0.227-0.237,0.227h-0.87c-0.121,0-0.189-0.073-0.202-0.218l-0.116-2.386c0-0.146,0.024-0.261,0.075-0.352
		c0.047-0.086,0.158-0.149,0.32-0.188l0.387-0.028c0.145-0.146,0.261-0.298,0.354-0.464c0.091-0.162,0.167-0.336,0.22-0.518
		c0.052-0.184,0.092-0.365,0.128-0.555c0.029-0.182,0.058-0.371,0.081-0.551l0.375-2.97c0.018-0.157,0.042-0.302,0.071-0.429
		c0.023-0.129,0.063-0.238,0.126-0.326c0.06-0.094,0.146-0.16,0.25-0.213c0.11-0.049,0.249-0.072,0.417-0.072h3.526
		c0.28,0,0.465,0.059,0.563,0.178c0.099,0.115,0.145,0.295,0.145,0.541v5.378l0.453,0.028c0.16,0.018,0.271,0.061,0.323,0.137
		c0.052,0.075,0.076,0.168,0.069,0.283l-0.14,2.505c-0.005,0.072-0.022,0.125-0.045,0.163c-0.029,0.034-0.075,0.055-0.145,0.055
		h-0.922c-0.139,0-0.208-0.076-0.208-0.227l-0.052-1.543H124.88z M128.748,141.269h-1.98c-0.087,0.765-0.162,1.41-0.227,1.938
		c-0.063,0.529-0.127,0.972-0.19,1.338c-0.058,0.359-0.122,0.648-0.185,0.868c-0.064,0.223-0.134,0.403-0.215,0.548h2.797V141.269z"
		/>
	<path fill="#7C98AB" d="M134.146,147.312c-0.035,0.027-0.103,0.041-0.208,0.041h-1.137c-0.086,0-0.148-0.018-0.191-0.049
		c-0.039-0.029-0.057-0.091-0.057-0.176v-7.05c0-0.085,0.018-0.142,0.057-0.177c0.043-0.031,0.105-0.047,0.191-0.047h1.137
		c0.105,0,0.173,0.016,0.208,0.045c0.029,0.025,0.046,0.086,0.046,0.179v7.05C134.192,147.219,134.176,147.282,134.146,147.312z"/>
	<path fill="#7C98AB" d="M140.685,142.34l-0.957,1.607l-1.812,2.934c-0.063,0.102-0.12,0.181-0.167,0.242
		c-0.052,0.059-0.105,0.111-0.162,0.145c-0.059,0.034-0.122,0.059-0.196,0.068c-0.076,0.012-0.169,0.018-0.272,0.018h-0.43
		c-0.277,0-0.469-0.067-0.556-0.197c-0.092-0.134-0.138-0.313-0.138-0.542v-6.567c0-0.136,0.074-0.203,0.218-0.203h1.147
		c0.099,0,0.162,0.015,0.192,0.041c0.022,0.031,0.034,0.084,0.034,0.162v4.822h0.064l0.909-1.501l1.859-3.044
		c0.061-0.098,0.115-0.179,0.167-0.245c0.052-0.063,0.105-0.112,0.161-0.151c0.059-0.031,0.123-0.057,0.191-0.066
		c0.07-0.015,0.163-0.018,0.267-0.018h0.44c0.267,0,0.446,0.057,0.545,0.168c0.104,0.107,0.15,0.305,0.15,0.582v6.557
		c0,0.136-0.076,0.203-0.226,0.203h-1.142c-0.104,0-0.168-0.014-0.197-0.041c-0.029-0.029-0.04-0.087-0.04-0.162v-4.81H140.685z
		 M139.11,139.577c-0.216,0-0.418-0.035-0.609-0.104c-0.186-0.069-0.364-0.159-0.532-0.277c-0.167-0.12-0.324-0.251-0.464-0.396
		c-0.139-0.145-0.267-0.302-0.381-0.464c-0.013-0.022-0.024-0.055-0.04-0.092c-0.014-0.042,0.01-0.091,0.074-0.146l0.417-0.404
		c0.069-0.061,0.122-0.078,0.146-0.061c0.021,0.02,0.063,0.046,0.121,0.089c0.231,0.229,0.457,0.411,0.683,0.538
		c0.226,0.129,0.441,0.191,0.649,0.191c0.086,0,0.174-0.007,0.26-0.025c0.093-0.021,0.191-0.053,0.295-0.107
		c0.11-0.055,0.227-0.131,0.356-0.227c0.126-0.098,0.277-0.226,0.451-0.39c0.068-0.056,0.122-0.085,0.15-0.081
		c0.027,0.005,0.058,0.025,0.092,0.058l0.411,0.353c0.07,0.066,0.099,0.117,0.088,0.154c-0.012,0.035-0.023,0.066-0.046,0.093
		C140.581,139.143,139.873,139.577,139.11,139.577z"/>
	<path fill="#7C98AB" d="M150.195,147.312c-0.035,0.027-0.104,0.041-0.208,0.041h-1.124c-0.099,0-0.157-0.018-0.197-0.049
		c-0.034-0.029-0.052-0.091-0.052-0.176v-3.001h-2.901v3.001c0,0.091-0.018,0.154-0.053,0.184c-0.028,0.027-0.098,0.041-0.209,0.041
		h-1.135c-0.08,0-0.144-0.018-0.187-0.049c-0.04-0.029-0.056-0.091-0.056-0.176v-7.05c0-0.085,0.016-0.142,0.056-0.177
		c0.043-0.031,0.106-0.047,0.187-0.047h1.135c0.111,0,0.181,0.016,0.209,0.045c0.035,0.025,0.053,0.086,0.053,0.179v2.67h2.901
		v-2.67c0-0.085,0.018-0.142,0.052-0.177c0.04-0.031,0.099-0.047,0.197-0.047h1.124c0.104,0,0.173,0.016,0.208,0.045
		c0.029,0.025,0.045,0.086,0.045,0.179v7.05C150.24,147.219,150.225,147.282,150.195,147.312z"/>
	<path fill="#7C98AB" d="M158.344,143.583c0,0.613-0.063,1.16-0.197,1.635c-0.133,0.48-0.336,0.889-0.613,1.225
		c-0.278,0.334-0.632,0.592-1.048,0.766c-0.423,0.174-0.927,0.264-1.507,0.264c-1.105,0-1.929-0.336-2.468-1.006
		c-0.537-0.672-0.805-1.623-0.805-2.852c0-0.603,0.076-1.141,0.225-1.621c0.158-0.484,0.376-0.891,0.661-1.227
		c0.283-0.328,0.632-0.584,1.043-0.764c0.405-0.178,0.862-0.266,1.378-0.266c0.556,0,1.042,0.088,1.466,0.266
		c0.417,0.18,0.764,0.436,1.036,0.764c0.274,0.336,0.482,0.738,0.62,1.213C158.274,142.458,158.344,142.991,158.344,143.583z
		 M156.642,143.614c0-0.322-0.024-0.629-0.069-0.922c-0.047-0.291-0.127-0.55-0.249-0.773c-0.122-0.217-0.289-0.395-0.492-0.525
		c-0.21-0.134-0.475-0.201-0.806-0.201c-0.271,0-0.51,0.065-0.712,0.189c-0.203,0.123-0.377,0.291-0.51,0.507
		c-0.139,0.217-0.237,0.466-0.302,0.749c-0.063,0.287-0.098,0.591-0.098,0.913c0,0.376,0.028,0.718,0.08,1.017
		c0.059,0.301,0.145,0.558,0.271,0.77c0.122,0.217,0.291,0.382,0.499,0.495c0.203,0.116,0.464,0.171,0.781,0.171
		c0.308,0,0.563-0.067,0.771-0.2c0.208-0.13,0.371-0.307,0.493-0.523c0.12-0.214,0.207-0.472,0.259-0.759
		C156.612,144.232,156.642,143.927,156.642,143.614z"/>
	<path fill="#7C98AB" d="M163.185,145.991c0.343,0,0.65-0.04,0.91-0.121c0.267-0.081,0.51-0.169,0.74-0.255
		c0.1-0.04,0.175-0.05,0.216-0.023c0.041,0.023,0.081,0.077,0.115,0.157l0.365,0.77c0.052,0.098,0.07,0.174,0.052,0.223
		c-0.012,0.053-0.052,0.093-0.116,0.131c-0.381,0.237-0.786,0.391-1.215,0.475c-0.423,0.084-0.847,0.125-1.258,0.125
		c-0.585,0-1.095-0.09-1.517-0.264c-0.424-0.174-0.776-0.43-1.048-0.756c-0.278-0.328-0.482-0.73-0.613-1.205
		c-0.129-0.475-0.198-1.008-0.198-1.601c0-0.586,0.086-1.119,0.254-1.597c0.169-0.48,0.4-0.889,0.702-1.23
		c0.301-0.344,0.659-0.607,1.088-0.794c0.424-0.188,0.894-0.278,1.407-0.278c0.366,0,0.719,0.029,1.072,0.091
		c0.347,0.061,0.689,0.185,1.024,0.368c0.08,0.045,0.129,0.088,0.139,0.131c0.018,0.043,0,0.123-0.05,0.246l-0.331,0.738
		c-0.035,0.101-0.075,0.162-0.116,0.184c-0.04,0.02-0.105,0.014-0.209-0.021c-0.255-0.094-0.491-0.162-0.718-0.21
		c-0.221-0.045-0.463-0.071-0.736-0.071c-0.296,0-0.549,0.066-0.782,0.191c-0.218,0.125-0.41,0.295-0.561,0.512
		c-0.157,0.217-0.273,0.475-0.354,0.77c-0.075,0.296-0.115,0.619-0.115,0.971c0,0.351,0.027,0.668,0.092,0.952
		c0.058,0.286,0.162,0.533,0.314,0.738c0.145,0.211,0.334,0.371,0.565,0.484C162.542,145.933,162.838,145.991,163.185,145.991z"/>
	<path fill="#7C98AB" d="M172.053,141.245h-1.934v5.883c0,0.091-0.017,0.154-0.053,0.184c-0.029,0.027-0.1,0.041-0.209,0.041h-1.146
		c-0.082,0-0.152-0.018-0.186-0.049c-0.04-0.029-0.063-0.091-0.063-0.176v-5.883h-1.895c-0.133,0-0.204-0.07-0.204-0.211v-0.956
		c0-0.093,0.018-0.153,0.047-0.179c0.024-0.029,0.081-0.045,0.157-0.045h5.484c0.086,0,0.145,0.016,0.174,0.045
		c0.028,0.025,0.041,0.086,0.041,0.179v0.956C172.268,141.175,172.197,141.245,172.053,141.245z"/>
	<path fill="#7C98AB" d="M175.075,147.312c-0.035,0.027-0.104,0.041-0.208,0.041h-1.134c-0.089,0-0.151-0.018-0.191-0.049
		c-0.042-0.029-0.06-0.091-0.06-0.176v-7.05c0-0.085,0.018-0.142,0.06-0.177c0.04-0.031,0.102-0.047,0.191-0.047h1.134
		c0.104,0,0.173,0.016,0.208,0.045c0.029,0.025,0.048,0.086,0.048,0.179v7.05C175.123,147.219,175.104,147.282,175.075,147.312z"/>
</g>
</svg>
