<?xml version="1.0" encoding="utf-8"?>
<!-- Generator: Adobe Illustrator 19.1.0, SVG Export Plug-In . SVG Version: 6.00 Build 0)  -->
<svg version="1.1" id="Режим_изоляции"
	 xmlns="http://www.w3.org/2000/svg" xmlns:xlink="http://www.w3.org/1999/xlink" x="0px" y="0px" viewBox="0 0 377.597 96.516"
	 enable-background="new 0 0 377.597 96.516" xml:space="preserve">
<g>
	<g>
		<path fill="#56DB31" d="M127.275,70.936c-0.53,0-1.036,0.104-1.515,0.297c-0.475,0.197-0.887,0.463-1.236,0.805
			c-0.352,0.332-0.636,0.73-0.841,1.195c-0.213,0.467-0.316,0.959-0.316,1.496c0,0.533,0.104,1.031,0.316,1.492
			c0.205,0.467,0.489,0.867,0.841,1.199c0.349,0.34,0.761,0.609,1.236,0.801c0.479,0.199,0.985,0.303,1.515,0.303
			c1.095,0,2.016-0.365,2.759-1.104c0.746-0.73,1.117-1.625,1.117-2.691c0-1.064-0.372-1.965-1.117-2.691
			C129.29,71.299,128.37,70.936,127.275,70.936z"/>
		<path fill="#56DB31" d="M145.233,55.354c-1.659,0-3.135,0.27-4.443,0.801c-1.309,0.537-2.416,1.297-3.33,2.277
			c-0.909,0.984-1.61,2.199-2.102,3.639c-0.492,1.451-0.738,3.066-0.738,4.865c0,3.656,0.847,6.49,2.527,8.508
			c1.687,2.018,4.351,3.029,8.002,3.029c3.618,0,6.316-1.012,8.078-3.029c1.775-2.018,2.659-4.887,2.659-8.588
			c0-3.598-0.886-6.408-2.669-8.439C151.427,56.369,148.768,55.354,145.233,55.354z M149.298,69.461
			c-0.155,0.76-0.404,1.43-0.76,2.004c-0.356,0.572-0.797,1.02-1.344,1.352c-0.55,0.314-1.214,0.484-2.005,0.484
			c-1.519,0-2.606-0.547-3.26-1.644c-0.659-1.1-0.989-2.697-0.989-4.801c0-1.939,0.355-3.475,1.064-4.613
			c0.727-1.141,1.823-1.705,3.311-1.705c0.791,0,1.449,0.164,1.984,0.482c0.532,0.322,0.97,0.764,1.311,1.32
			c0.325,0.578,0.572,1.24,0.712,2.029c0.139,0.789,0.204,1.662,0.204,2.611C149.526,67.877,149.454,68.705,149.298,69.461z"/>
		<path fill="#56DB31" d="M208.23,70.936c-0.532,0-1.036,0.104-1.516,0.297c-0.477,0.197-0.893,0.463-1.244,0.805
			c-0.345,0.332-0.621,0.73-0.838,1.195c-0.212,0.467-0.317,0.959-0.317,1.496c0,0.533,0.105,1.031,0.317,1.492
			c0.218,0.467,0.493,0.867,0.838,1.199c0.351,0.34,0.768,0.609,1.244,0.801c0.48,0.199,0.984,0.303,1.516,0.303
			c1.102,0,2.017-0.365,2.764-1.104c0.733-0.73,1.12-1.625,1.12-2.691c0-1.064-0.387-1.965-1.12-2.691
			C210.247,71.299,209.331,70.936,208.23,70.936z"/>
		<path fill="#56DB31" d="M176.77,58.432c-1.412-1.039-3.013-1.797-4.822-2.277c-0.613-0.156-1.226-0.285-1.838-0.393
			c-1.21-0.209-2.431-0.316-3.659-0.316c-0.566,0-1.108,0.014-1.64,0.063c-0.541,0.037-1.055,0.092-1.564,0.146
			c-1.237,0.191-2.041,0.582-2.422,1.154c-0.38,0.576-0.575,1.414-0.575,2.51V77.26c0,0.303,0.076,0.502,0.208,0.605
			c0.152,0.1,0.377,0.143,0.68,0.143h4.304c0.389,0,0.642-0.035,0.753-0.115c0.11-0.088,0.166-0.297,0.166-0.633V61.002
			c0.535-0.092,1.089-0.129,1.691-0.129c1.113,0.027,2.135,0.229,3.029,0.611c0.024,0.014,0.048,0.027,0.08,0.039
			c0.137,0.072,0.267,0.135,0.404,0.195c0.043,0.016,0.061,0.021,0.1,0.037c0.45,0.17,0.928,0.258,1.427,0.258
			c1.09,0,2.012-0.363,2.756-1.092c0.596-0.584,0.942-1.277,1.071-2.072C176.95,58.67,176.941,58.57,176.77,58.432z"/>
		<path fill="#56DB31" d="M198.475,57.045c-1.298-0.596-2.722-1.006-4.267-1.248c-1.564-0.232-3.093-0.352-4.613-0.352
			c-1.925,0-3.582,0.297-4.97,0.879c-1.387,0.588-2.535,1.406-3.433,2.443c-0.892,1.041-1.56,2.258-1.991,3.666
			c-0.436,1.404-0.651,2.908-0.651,4.502c0,1.658,0.185,3.16,0.564,4.502c0.378,1.35,0.958,2.512,1.74,3.484
			c0.787,0.959,1.791,1.717,3.014,2.25c1.213,0.533,2.657,0.801,4.342,0.801c0.844,0,1.694-0.053,2.542-0.148
			c0.852-0.096,1.644-0.25,2.375-0.48l0.04,0.252c0,0.814-0.194,1.496-0.574,2.047c-0.381,0.545-0.869,0.994-1.478,1.348
			c-0.493,0.283-1.038,0.51-1.643,0.691c-0.104,0.033-0.202,0.055-0.309,0.092c-0.078,0.031-0.161,0.055-0.244,0.094
			c-0.477,0.199-0.893,0.463-1.241,0.799c-0.346,0.338-0.626,0.736-0.841,1.195c-0.213,0.465-0.314,0.967-0.314,1.496
			c0,0.537,0.101,1.039,0.314,1.496c0.1,0.205,0.202,0.404,0.325,0.58c0.105,0.154,0.214,0.264,0.443,0.227
			c1.875-0.246,3.55-0.646,5.002-1.174c0.607-0.229,1.166-0.475,1.689-0.773c0.73-0.402,1.397-0.873,1.985-1.412
			c0.983-0.932,1.741-2.086,2.253-3.484c0.516-1.385,0.782-3.076,0.782-5.07V58.35c0-0.309-0.053-0.557-0.163-0.736
			C199.059,57.428,198.835,57.238,198.475,57.045z M191.141,72.688c-0.705,0.074-1.224,0.1-1.561,0.1
			c-1.46,0-2.605-0.445-3.426-1.35c-0.826-0.898-1.249-2.436-1.249-4.611c0-1.149,0.123-2.119,0.365-2.908
			c0.237-0.789,0.576-1.422,1.006-1.904c0.425-0.475,0.967-0.83,1.596-1.059c0.635-0.215,1.327-0.336,2.092-0.336
			c0.391,0,0.887,0.035,1.494,0.109c0.603,0.07,1.186,0.193,1.742,0.355v11.158C192.531,72.469,191.841,72.615,191.141,72.688z"/>
		<path fill="#56DB31" d="M92.658,58.625c-0.785-1.025-1.789-1.836-3.009-2.422c-1.228-0.594-2.688-0.887-4.4-0.887
			c-0.835,0-1.703,0.055-2.565,0.162c-0.87,0.121-1.674,0.283-2.405,0.514l-0.039-4.59v-3.379c0-0.066-0.02-0.119-0.029-0.182
			c-0.067-0.396-0.348-0.609-0.855-0.609h-1.308c-0.532,0-1.046,0.09-1.511,0.289c-0.486,0.201-0.896,0.465-1.25,0.807
			c-0.355,0.332-0.63,0.731-0.837,1.191c-0.216,0.465-0.319,0.965-0.319,1.504v0.379v1.252v22.918c0,0.303,0.044,0.56,0.129,0.756
			c0.081,0.199,0.291,0.361,0.629,0.508c1.29,0.584,2.738,1.014,4.338,1.26c1.6,0.25,3.162,0.377,4.676,0.377
			c1.96,0,3.648-0.307,5.05-0.916c1.409-0.625,2.55-1.461,3.433-2.512c0.877-1.043,1.532-2.283,1.937-3.707
			c0.409-1.412,0.608-2.941,0.608-4.568c0-1.6-0.185-3.096-0.549-4.51C94.028,60.854,93.441,59.645,92.658,58.625z M87.22,71.861
			c-0.903,0.965-2.129,1.439-3.687,1.439c-0.394,0-0.892-0.035-1.516-0.084c-0.623-0.06-1.221-0.174-1.776-0.338V61.133
			c0.672-0.232,1.361-0.379,2.069-0.447c0.706-0.072,1.238-0.104,1.609-0.104c1.468,0,2.611,0.52,3.424,1.559
			c0.818,1.047,1.235,2.635,1.235,4.774C88.578,69.25,88.124,70.9,87.22,71.861z"/>
		<path fill="#56DB31" d="M117.693,58.625c-0.789-1.025-1.784-1.836-3.014-2.422c-1.215-0.594-2.683-0.887-4.4-0.887
			c-0.838,0-1.698,0.055-2.565,0.162c-0.876,0.121-1.674,0.283-2.401,0.514l-0.04-4.59v-3.379c0-0.066-0.021-0.119-0.032-0.182
			c-0.067-0.396-0.345-0.609-0.851-0.609h-1.312c-0.524,0-1.036,0.09-1.509,0.289c-0.485,0.201-0.9,0.465-1.255,0.807
			c-0.341,0.332-0.625,0.731-0.837,1.191c-0.212,0.465-0.312,0.965-0.312,1.504v0.379v1.252v22.918c0,0.303,0.04,0.56,0.13,0.756
			c0.08,0.199,0.294,0.361,0.628,0.508c1.294,0.584,2.738,1.014,4.334,1.26c1.601,0.25,3.161,0.377,4.675,0.377
			c1.966,0,3.651-0.307,5.053-0.916c1.411-0.625,2.544-1.461,3.438-2.512c0.889-1.043,1.527-2.283,1.932-3.707
			c0.416-1.412,0.617-2.941,0.617-4.568c0-1.6-0.188-3.096-0.548-4.51C119.054,60.854,118.475,59.645,117.693,58.625z
			 M112.25,71.861c-0.895,0.965-2.129,1.439-3.677,1.439c-0.402,0-0.908-0.035-1.524-0.084c-0.625-0.06-1.211-0.174-1.777-0.338
			V61.133c0.68-0.232,1.366-0.379,2.068-0.447c0.706-0.072,1.241-0.104,1.604-0.104c1.471,0,2.615,0.52,3.438,1.559
			c0.814,1.047,1.222,2.635,1.222,4.774C113.603,69.25,113.157,70.9,112.25,71.861z"/>
		<path fill="#56DB31" d="M68.139,55.865h-1.314c-0.541,0-1.047,0.098-1.52,0.289c-0.473,0.203-0.888,0.471-1.248,0.801
			c-0.349,0.34-0.629,0.742-0.833,1.205c-0.214,0.465-0.314,0.959-0.314,1.494v1.039v0.596v11.963
			c-0.598,0.086-1.155,0.146-1.683,0.174c-0.509,0.029-0.917,0.037-1.2,0.037c-0.992,0-1.789-0.105-2.41-0.332
			c-0.625-0.227-1.108-0.57-1.441-1.035c-0.337-0.463-0.565-1.041-0.677-1.727c-0.111-0.691-0.167-1.494-0.167-2.422v-5.141v-1.517
			v-4.627c0-0.072-0.021-0.127-0.037-0.189c-0.062-0.396-0.34-0.607-0.849-0.607h-1.306c-0.535,0-1.039,0.098-1.517,0.289
			c-0.484,0.203-0.898,0.471-1.235,0.801c-0.364,0.34-0.641,0.742-0.853,1.205c-0.208,0.465-0.316,0.959-0.316,1.494v1.635v6.283
			c0,1.988,0.195,3.684,0.59,5.068c0.399,1.393,1.033,2.525,1.917,3.393c0.887,0.869,2.035,1.5,3.461,1.896
			c1.407,0.387,3.128,0.594,5.156,0.594c0.419,0,0.909-0.012,1.47-0.027c0.562-0.014,1.129-0.039,1.706-0.076
			c0.582-0.043,1.116-0.104,1.62-0.158c0.507-0.053,0.923-0.104,1.268-0.166c0.977-0.225,1.659-0.619,2.032-1.18
			c0.386-0.557,0.57-1.314,0.57-2.275V61.289v-0.596v-4.031c0-0.072-0.01-0.127-0.015-0.189
			C68.917,56.076,68.645,55.865,68.139,55.865z"/>
		<path fill="#56DB31" d="M235.092,55.865h-1.312c-0.53,0-1.036,0.098-1.518,0.289c-0.479,0.203-0.889,0.471-1.241,0.801
			c-0.355,0.34-0.638,0.742-0.84,1.205c-0.216,0.465-0.315,0.959-0.315,1.494v1.039v0.596v11.963
			c-0.591,0.086-1.151,0.146-1.679,0.174c-0.521,0.029-0.92,0.037-1.201,0.037c-0.99,0-1.792-0.105-2.413-0.332
			c-0.618-0.227-1.105-0.57-1.441-1.035c-0.333-0.463-0.563-1.041-0.675-1.727c-0.115-0.691-0.173-1.494-0.173-2.422v-5.141v-1.517
			v-4.627c0-0.072-0.016-0.127-0.027-0.189c-0.063-0.396-0.338-0.607-0.849-0.607h-1.309c-0.538,0-1.042,0.098-1.522,0.289
			c-0.466,0.203-0.897,0.471-1.241,0.801c-0.351,0.34-0.631,0.742-0.832,1.205c-0.222,0.465-0.32,0.959-0.32,1.494v1.635v6.283
			c0,1.988,0.192,3.684,0.577,5.068c0.405,1.393,1.038,2.525,1.923,3.393c0.884,0.869,2.039,1.5,3.454,1.896
			c1.413,0.387,3.138,0.594,5.156,0.594c0.427,0,0.916-0.012,1.484-0.027c0.56-0.014,1.125-0.039,1.697-0.076
			c0.576-0.043,1.116-0.104,1.619-0.158c0.506-0.053,0.927-0.104,1.262-0.166c0.99-0.225,1.665-0.619,2.045-1.18
			c0.382-0.557,0.575-1.314,0.575-2.275V61.289v-0.596v-4.031c0-0.072-0.026-0.127-0.036-0.189
			C235.878,56.076,235.602,55.865,235.092,55.865z"/>
		<path fill="#56DB31" d="M257.425,57.271c-1.415-1.301-3.649-1.955-6.708-1.955c-0.369,0-0.743,0.008-1.106,0.021
			c-1.014,0.041-2.023,0.129-3.047,0.272c-1.383,0.197-2.71,0.521-3.979,0.973c-0.221,0.08-0.369,0.182-0.44,0.316
			c-0.036,0.074-0.052,0.186-0.032,0.34c0,0.043,0.015,0.1,0.018,0.154c0.023,0.121,0.05,0.229,0.085,0.35
			c0.052,0.168,0.104,0.342,0.18,0.5c0.21,0.463,0.485,0.865,0.835,1.199c0.358,0.334,0.766,0.606,1.242,0.795
			c0.479,0.203,0.987,0.301,1.518,0.301c0.285,0,0.564-0.014,0.815-0.063c0.542-0.072,1.072-0.127,1.598-0.17
			c0.532-0.041,1.011-0.068,1.429-0.068c0.779,0,1.415,0.09,1.903,0.256c0.475,0.17,0.838,0.389,1.108,0.658
			c0.264,0.264,0.441,0.58,0.526,0.945c0.083,0.367,0.126,0.738,0.126,1.141v0.672h-4.635c-1.512,0-2.826,0.186-3.924,0.566
			c-1.118,0.385-2.032,0.902-2.768,1.576c-0.731,0.674-1.277,1.471-1.641,2.377c-0.363,0.922-0.545,1.92-0.545,3.01
			c0,0.984,0.148,1.908,0.46,2.768c0.307,0.85,0.839,1.598,1.601,2.227c0.761,0.633,1.758,1.131,3.001,1.498
			c1.241,0.365,2.826,0.543,4.724,0.543c0.701,0,1.443-0.025,2.23-0.08c0.784-0.059,1.561-0.141,2.326-0.248
			c0.779-0.115,1.531-0.273,2.276-0.471c0.742-0.197,1.436-0.451,2.074-0.758c0.395-0.227,0.638-0.465,0.738-0.713
			c0.101-0.254,0.15-0.566,0.15-0.928V63.063C259.565,60.508,258.85,58.58,257.425,57.271z M253.454,73.09
			c-0.275,0.109-0.586,0.199-0.929,0.275c-0.337,0.068-0.668,0.123-0.983,0.164c-0.323,0.041-0.626,0.07-0.905,0.088
			c-0.28,0.012-0.508,0.018-0.674,0.018c-1.129,0-2.015-0.188-2.676-0.586c-0.66-0.398-0.991-1.084-0.991-2.066
			c0-0.676,0.127-1.211,0.383-1.605c0.255-0.391,0.571-0.691,0.945-0.9c0.383-0.211,0.793-0.34,1.237-0.402
			c0.455-0.061,0.876-0.082,1.268-0.082h3.325V73.09z"/>
	</g>
	<g>
		<path fill="#7C98AB" d="M278.5,56.166c0.134,0,0.174,0.061,0.125,0.18l-2.153,5.977c-0.096,0.26-0.205,0.488-0.327,0.672
			c-0.122,0.178-0.269,0.324-0.433,0.432c-0.164,0.113-0.352,0.191-0.563,0.24c-0.209,0.045-0.452,0.072-0.723,0.072
			c-0.142,0-0.299-0.016-0.472-0.033c-0.174-0.021-0.353-0.063-0.538-0.113c-0.088-0.029-0.148-0.053-0.174-0.078
			c-0.022-0.029-0.028-0.082-0.013-0.156l0.165-0.869c0.013-0.08,0.04-0.121,0.076-0.127c0.033-0.006,0.087-0.004,0.168,0.008
			c0.117,0.014,0.224,0.029,0.307,0.035c0.088,0.004,0.179,0.008,0.27,0.008c0.12,0,0.223-0.004,0.31-0.014
			c0.087-0.012,0.166-0.035,0.235-0.072c0.071-0.039,0.13-0.094,0.18-0.158c0.046-0.068,0.094-0.162,0.135-0.277l0.168-0.475h-0.273
			c-0.169,0-0.287-0.029-0.363-0.084c-0.073-0.057-0.147-0.18-0.224-0.367l-1.849-4.602c-0.033-0.07-0.033-0.119,0-0.15
			c0.034-0.031,0.085-0.047,0.148-0.047h1.217c0.119,0,0.198,0.016,0.242,0.041c0.042,0.025,0.076,0.08,0.105,0.168l0.775,2.133
			l0.59,1.732h0.075l0.554-1.814l0.663-2.039c0.035-0.094,0.067-0.154,0.105-0.18c0.034-0.025,0.106-0.041,0.221-0.041H278.5z"/>
		<path fill="#7C98AB" d="M284.022,59.631c0.183,0.063,0.333,0.137,0.456,0.215c0.114,0.08,0.213,0.174,0.291,0.277
			c0.078,0.107,0.139,0.225,0.184,0.352c0.044,0.131,0.088,0.275,0.13,0.428l0.651,2.434c0.013,0.039,0.016,0.08,0.006,0.131
			c-0.009,0.053-0.057,0.082-0.154,0.082h-1.216c-0.036,0-0.074-0.006-0.116-0.025c-0.041-0.008-0.074-0.055-0.094-0.123
			l-0.641-2.258c-0.057-0.186-0.121-0.334-0.194-0.449c-0.072-0.117-0.164-0.201-0.271-0.264c-0.102-0.064-0.224-0.107-0.365-0.133
			c-0.14-0.025-0.298-0.035-0.483-0.035h-0.862l0.013,3.119c0,0.076-0.014,0.123-0.044,0.139c-0.025,0.021-0.075,0.029-0.146,0.029
			h-1.218c-0.06,0-0.11-0.008-0.141-0.029c-0.031-0.016-0.047-0.063-0.047-0.139v-7.018c0-0.076,0.016-0.121,0.047-0.141
			c0.031-0.021,0.081-0.029,0.141-0.029h1.23c0.07,0,0.119,0.008,0.146,0.029c0.031,0.02,0.036,0.064,0.02,0.141v2.682h0.842
			c0.104,0,0.215-0.01,0.33-0.027c0.116-0.021,0.23-0.059,0.342-0.121c0.112-0.064,0.217-0.158,0.309-0.285
			c0.096-0.125,0.172-0.297,0.228-0.514l0.471-1.773c0.016-0.072,0.042-0.115,0.088-0.131c0.047-0.01,0.088-0.018,0.122-0.018h1.177
			c0.09,0,0.139,0.025,0.152,0.076c0.011,0.053,0.007,0.098-0.004,0.135l-0.483,1.881c-0.144,0.6-0.438,1.035-0.895,1.31V59.631z"/>
		<path fill="#7C98AB" d="M288.564,63.326c0,0.1-0.018,0.158-0.046,0.188c-0.035,0.025-0.101,0.035-0.207,0.035h-1.102
			c-0.085,0-0.146-0.016-0.184-0.047c-0.038-0.035-0.058-0.094-0.058-0.176v-6.502c0-0.193,0.042-0.352,0.126-0.465
			c0.082-0.115,0.253-0.172,0.505-0.172h2.573c0.376,0,0.717,0.057,1.025,0.172c0.303,0.113,0.56,0.275,0.775,0.478
			c0.212,0.199,0.378,0.443,0.488,0.723c0.112,0.279,0.172,0.592,0.172,0.926c0,0.184-0.029,0.408-0.086,0.678
			c-0.057,0.266-0.179,0.531-0.363,0.787c-0.184,0.256-0.455,0.469-0.806,0.656c-0.357,0.18-0.828,0.271-1.415,0.271h-1.397V63.326z
			 M290.979,58.59c0-0.096-0.013-0.203-0.042-0.318c-0.028-0.113-0.081-0.225-0.167-0.326c-0.078-0.102-0.186-0.186-0.322-0.25
			c-0.138-0.068-0.309-0.102-0.52-0.102h-1.366v1.994h1.378c0.352,0,0.619-0.092,0.785-0.289
			C290.895,59.109,290.979,58.869,290.979,58.59z"/>
		<path fill="#7C98AB" d="M297.325,62.014h-2.408l-0.409,1.334c-0.021,0.072-0.049,0.119-0.085,0.154
			c-0.042,0.031-0.11,0.047-0.21,0.047h-1.227c-0.077,0-0.125-0.025-0.14-0.066c-0.018-0.039-0.021-0.088-0.008-0.146l2.185-6.586
			c0.033-0.115,0.074-0.209,0.122-0.285c0.043-0.072,0.095-0.133,0.155-0.178c0.06-0.037,0.13-0.066,0.21-0.086
			c0.081-0.018,0.173-0.025,0.277-0.025h0.631c0.12,0,0.223,0.006,0.304,0.016c0.086,0.01,0.161,0.037,0.224,0.08
			c0.065,0.041,0.116,0.098,0.164,0.176c0.044,0.076,0.089,0.178,0.13,0.303l2.183,6.586c0.015,0.045,0.015,0.09,0,0.141
			c-0.015,0.045-0.059,0.072-0.135,0.072h-1.251c-0.075,0-0.141-0.008-0.194-0.029c-0.052-0.016-0.088-0.063-0.112-0.139
			L297.325,62.014z M295.295,60.723h1.652l-0.4-1.34l-0.386-1.508h-0.065l-0.4,1.508L295.295,60.723z"/>
		<path fill="#7C98AB" d="M301.106,54.938c0,0.104-0.018,0.203-0.06,0.295c-0.043,0.086-0.103,0.168-0.176,0.24
			c-0.072,0.068-0.155,0.125-0.251,0.17c-0.094,0.039-0.192,0.057-0.296,0.057c-0.107,0-0.203-0.018-0.294-0.057
			c-0.094-0.045-0.177-0.102-0.252-0.17c-0.07-0.072-0.13-0.154-0.168-0.24c-0.042-0.092-0.066-0.191-0.066-0.295
			c0-0.107,0.024-0.203,0.066-0.301c0.038-0.094,0.098-0.178,0.168-0.246c0.076-0.072,0.159-0.127,0.252-0.17
			c0.09-0.039,0.187-0.061,0.294-0.061c0.104,0,0.202,0.021,0.296,0.061c0.096,0.043,0.179,0.098,0.251,0.17
			c0.074,0.068,0.134,0.152,0.176,0.246C301.088,54.734,301.106,54.83,301.106,54.938z M302.241,63.326
			c0,0.094-0.016,0.15-0.047,0.178c-0.027,0.029-0.099,0.045-0.203,0.045h-1.113c-0.083,0-0.146-0.016-0.182-0.047
			c-0.04-0.035-0.06-0.094-0.06-0.176V56.42c0-0.088,0.02-0.145,0.06-0.176c0.036-0.031,0.099-0.051,0.182-0.051h1.113
			c0.105,0,0.176,0.016,0.203,0.045c0.031,0.025,0.047,0.088,0.047,0.182V63.326z M303.262,54.938c0,0.104-0.019,0.203-0.065,0.295
			c-0.04,0.086-0.1,0.168-0.169,0.24c-0.075,0.068-0.158,0.125-0.249,0.17c-0.094,0.039-0.191,0.057-0.296,0.057
			c-0.104,0-0.203-0.018-0.296-0.057c-0.097-0.045-0.179-0.102-0.253-0.17c-0.074-0.072-0.131-0.154-0.173-0.24
			c-0.043-0.092-0.062-0.191-0.062-0.295c0-0.211,0.078-0.393,0.235-0.547c0.156-0.154,0.342-0.23,0.55-0.23
			c0.105,0,0.202,0.021,0.296,0.061c0.09,0.043,0.174,0.098,0.249,0.17c0.069,0.068,0.13,0.152,0.169,0.246
			C303.243,54.734,303.262,54.83,303.262,54.938z"/>
		<path fill="#7C98AB" d="M310.013,63.504c-0.036,0.029-0.103,0.045-0.206,0.045h-1.104c-0.09,0-0.151-0.016-0.188-0.047
			c-0.038-0.035-0.052-0.094-0.052-0.176v-2.939h-2.847v2.939c0,0.094-0.016,0.15-0.046,0.178c-0.031,0.029-0.098,0.045-0.204,0.045
			h-1.113c-0.086,0-0.146-0.016-0.187-0.047c-0.039-0.035-0.055-0.094-0.055-0.176V56.42c0-0.088,0.016-0.145,0.055-0.176
			c0.042-0.031,0.101-0.051,0.187-0.051h1.113c0.105,0,0.172,0.016,0.204,0.045c0.031,0.025,0.046,0.088,0.046,0.182v2.611h2.847
			V56.42c0-0.088,0.015-0.145,0.052-0.176c0.037-0.031,0.098-0.051,0.188-0.051h1.104c0.103,0,0.17,0.016,0.206,0.045
			c0.03,0.025,0.044,0.088,0.044,0.182v6.906C310.058,63.42,310.043,63.477,310.013,63.504z"/>
		<path fill="#7C98AB" d="M314.97,62.213c0.337,0,0.635-0.039,0.893-0.119c0.257-0.08,0.499-0.166,0.723-0.248
			c0.101-0.039,0.169-0.053,0.21-0.027c0.045,0.025,0.081,0.078,0.118,0.152l0.355,0.756c0.049,0.098,0.068,0.172,0.055,0.221
			c-0.016,0.051-0.055,0.092-0.117,0.127c-0.38,0.232-0.776,0.389-1.193,0.469c-0.414,0.082-0.826,0.123-1.232,0.123
			c-0.577,0-1.069-0.088-1.487-0.26c-0.414-0.174-0.759-0.416-1.028-0.738c-0.268-0.328-0.467-0.717-0.597-1.188
			c-0.13-0.463-0.197-0.988-0.197-1.568c0-0.57,0.085-1.094,0.249-1.563c0.164-0.467,0.392-0.871,0.687-1.209
			c0.293-0.336,0.65-0.594,1.065-0.777c0.419-0.18,0.878-0.271,1.382-0.271c0.357,0,0.707,0.029,1.048,0.09
			c0.344,0.061,0.68,0.178,1.011,0.363c0.077,0.041,0.122,0.08,0.135,0.125c0.016,0.041-0.001,0.121-0.052,0.242l-0.324,0.725
			c-0.037,0.096-0.073,0.154-0.112,0.178c-0.039,0.02-0.106,0.014-0.203-0.023c-0.254-0.092-0.488-0.158-0.706-0.203
			c-0.217-0.047-0.455-0.066-0.728-0.066c-0.283,0-0.539,0.059-0.76,0.182c-0.217,0.123-0.402,0.289-0.557,0.506
			c-0.148,0.217-0.264,0.465-0.34,0.756c-0.075,0.291-0.114,0.607-0.114,0.947c0,0.346,0.029,0.654,0.088,0.936
			c0.06,0.277,0.161,0.521,0.306,0.727c0.141,0.201,0.331,0.359,0.562,0.473C314.34,62.162,314.629,62.213,314.97,62.213z"/>
		<path fill="#7C98AB" d="M319.186,63.549c-0.249,0-0.421-0.053-0.504-0.154c-0.085-0.098-0.127-0.266-0.127-0.488v-6.52
			c0-0.135,0.072-0.199,0.21-0.199h1.166c0.101,0,0.161,0.014,0.184,0.041c0.024,0.025,0.037,0.078,0.037,0.158v2.467h1.544
			c0.624,0,1.112,0.09,1.471,0.266c0.355,0.18,0.622,0.395,0.797,0.649c0.176,0.252,0.283,0.51,0.327,0.777
			c0.042,0.262,0.06,0.484,0.06,0.662c0,0.334-0.063,0.643-0.19,0.934c-0.131,0.285-0.311,0.535-0.537,0.74
			c-0.227,0.209-0.493,0.367-0.798,0.488c-0.304,0.117-0.632,0.18-0.983,0.18H319.186z M322.705,61.152
			c0-0.279-0.087-0.51-0.257-0.695c-0.173-0.18-0.426-0.268-0.76-0.268h-1.536v1.951h1.524c0.194,0,0.359-0.035,0.493-0.1
			c0.13-0.068,0.238-0.148,0.322-0.248c0.077-0.098,0.135-0.201,0.166-0.322C322.689,61.355,322.705,61.25,322.705,61.152z"/>
		<path fill="#7C98AB" d="M329.886,59.631c0.182,0.063,0.333,0.137,0.449,0.215c0.12,0.08,0.221,0.174,0.296,0.277
			c0.078,0.107,0.139,0.225,0.183,0.352c0.049,0.131,0.09,0.275,0.133,0.428l0.648,2.434c0.016,0.039,0.018,0.08,0.009,0.131
			c-0.012,0.053-0.064,0.082-0.152,0.082h-1.221c-0.034,0-0.074-0.006-0.112-0.025c-0.044-0.008-0.075-0.055-0.098-0.123
			l-0.642-2.258c-0.054-0.186-0.119-0.334-0.191-0.449c-0.076-0.117-0.163-0.201-0.268-0.264c-0.105-0.064-0.228-0.107-0.372-0.133
			c-0.136-0.025-0.298-0.035-0.48-0.035h-0.859l0.008,3.119c0,0.076-0.012,0.123-0.042,0.139c-0.026,0.021-0.078,0.029-0.145,0.029
			h-1.219c-0.061,0-0.11-0.008-0.14-0.029c-0.033-0.016-0.049-0.063-0.049-0.139v-7.018c0-0.076,0.017-0.121,0.049-0.141
			c0.029-0.021,0.079-0.029,0.14-0.029h1.23c0.07,0,0.116,0.008,0.148,0.029c0.024,0.02,0.033,0.064,0.02,0.141v2.682h0.838
			c0.107,0,0.217-0.01,0.331-0.027c0.116-0.021,0.23-0.059,0.343-0.121c0.111-0.064,0.215-0.158,0.309-0.285
			c0.095-0.125,0.169-0.297,0.226-0.514l0.473-1.773c0.015-0.072,0.043-0.115,0.087-0.131c0.046-0.01,0.086-0.018,0.122-0.018h1.176
			c0.092,0,0.143,0.025,0.153,0.076c0.007,0.053,0.007,0.098-0.005,0.135l-0.482,1.881c-0.144,0.6-0.439,1.035-0.894,1.31V59.631z"
			/>
		<path fill="#7C98AB" d="M337,62.014h-2.405l-0.409,1.334c-0.021,0.072-0.05,0.119-0.09,0.154
			c-0.037,0.031-0.105,0.047-0.201,0.047h-1.233c-0.075,0-0.122-0.025-0.139-0.066c-0.018-0.039-0.018-0.088-0.006-0.146
			l2.184-6.586c0.036-0.115,0.075-0.209,0.122-0.285c0.046-0.072,0.097-0.133,0.156-0.178c0.06-0.037,0.13-0.066,0.211-0.086
			c0.082-0.018,0.176-0.025,0.28-0.025h0.629c0.119,0,0.22,0.006,0.307,0.016c0.082,0.01,0.155,0.037,0.217,0.08
			c0.063,0.041,0.12,0.098,0.165,0.176c0.043,0.076,0.086,0.178,0.131,0.303l2.183,6.586c0.014,0.045,0.014,0.09,0,0.141
			c-0.014,0.045-0.061,0.072-0.135,0.072h-1.251c-0.076,0-0.14-0.008-0.192-0.029c-0.054-0.016-0.09-0.063-0.11-0.139L337,62.014z
			 M334.976,60.723h1.645l-0.396-1.34l-0.389-1.508h-0.063l-0.4,1.508L334.976,60.723z"/>
		<path fill="#7C98AB" d="M343.89,63.549c-0.26,0-0.43-0.051-0.509-0.148c-0.078-0.096-0.123-0.256-0.123-0.482v-6.006
			c0-0.246,0.049-0.428,0.148-0.545c0.098-0.115,0.273-0.174,0.526-0.174h4.093c0.081,0,0.13,0.019,0.155,0.051
			c0.024,0.031,0.035,0.09,0.035,0.184v0.936c0,0.08-0.01,0.131-0.035,0.158c-0.025,0.027-0.074,0.039-0.155,0.039h-3.172v1.305
			h1.534c0.415,0,0.771,0.041,1.062,0.123c0.294,0.084,0.539,0.197,0.741,0.334c0.199,0.135,0.358,0.289,0.472,0.463
			c0.117,0.17,0.202,0.342,0.26,0.516c0.053,0.178,0.093,0.346,0.109,0.508c0.018,0.172,0.026,0.309,0.026,0.428
			c0,0.338-0.065,0.645-0.193,0.928c-0.131,0.279-0.311,0.52-0.537,0.725c-0.227,0.211-0.493,0.371-0.797,0.486
			c-0.306,0.111-0.638,0.174-0.994,0.174H343.89z M347.395,61.152c0-0.273-0.081-0.5-0.255-0.682
			c-0.174-0.182-0.42-0.275-0.752-0.275h-1.534v1.955h1.526c0.196,0,0.36-0.031,0.494-0.098c0.13-0.07,0.236-0.152,0.314-0.246
			c0.076-0.101,0.132-0.209,0.162-0.328C347.382,61.359,347.395,61.25,347.395,61.152z"/>
		<path fill="#7C98AB" d="M351.955,63.504c-0.034,0.029-0.103,0.045-0.205,0.045h-1.115c-0.081,0-0.145-0.016-0.185-0.047
			c-0.038-0.035-0.056-0.094-0.056-0.176V56.42c0-0.088,0.018-0.145,0.056-0.176c0.041-0.031,0.105-0.051,0.185-0.051h1.115
			c0.102,0,0.171,0.016,0.205,0.045c0.028,0.025,0.046,0.088,0.046,0.182v6.906C352.001,63.42,351.983,63.477,351.955,63.504z"/>
		<path fill="#7C98AB" d="M355.36,63.326c0,0.1-0.016,0.158-0.047,0.188c-0.034,0.025-0.101,0.035-0.206,0.035h-1.104
			c-0.083,0-0.141-0.016-0.182-0.047c-0.04-0.035-0.056-0.094-0.056-0.176v-6.502c0-0.193,0.037-0.352,0.124-0.465
			c0.087-0.115,0.253-0.172,0.504-0.172h2.574c0.377,0,0.717,0.057,1.024,0.172c0.305,0.113,0.563,0.275,0.775,0.478
			c0.214,0.199,0.378,0.443,0.488,0.723c0.114,0.279,0.171,0.592,0.171,0.926c0,0.184-0.031,0.408-0.085,0.678
			c-0.058,0.266-0.177,0.531-0.364,0.787c-0.184,0.256-0.453,0.469-0.811,0.656c-0.35,0.18-0.822,0.271-1.409,0.271h-1.396V63.326z
			 M357.775,58.59c0-0.096-0.016-0.203-0.043-0.318c-0.029-0.113-0.082-0.225-0.162-0.326c-0.082-0.102-0.19-0.186-0.327-0.25
			c-0.136-0.068-0.309-0.102-0.52-0.102h-1.365v1.994h1.372c0.358,0,0.624-0.092,0.79-0.289
			C357.69,59.109,357.775,58.869,357.775,58.59z"/>
		<path fill="#7C98AB" d="M361.731,59.578c-0.244-0.129-0.434-0.305-0.571-0.531c-0.139-0.225-0.242-0.486-0.309-0.779l-0.484-1.881
			c-0.013-0.037-0.018-0.082-0.005-0.135c0.01-0.051,0.057-0.076,0.149-0.076h1.177c0.036,0,0.074,0.008,0.121,0.018
			c0.045,0.016,0.076,0.059,0.09,0.131l0.471,1.773c0.057,0.217,0.129,0.389,0.217,0.514c0.088,0.127,0.182,0.221,0.283,0.285
			c0.101,0.063,0.208,0.1,0.322,0.121c0.11,0.018,0.22,0.027,0.323,0.027h0.76v-2.682c-0.016-0.076-0.01-0.121,0.018-0.141
			c0.028-0.021,0.08-0.029,0.148-0.029h1.218c0.063,0,0.111,0.008,0.142,0.029c0.033,0.02,0.048,0.064,0.048,0.141v2.682h0.745
			c0.103,0,0.215-0.01,0.325-0.027c0.112-0.021,0.22-0.059,0.322-0.121c0.101-0.064,0.195-0.158,0.283-0.285
			c0.086-0.125,0.159-0.297,0.215-0.514l0.473-1.773c0.015-0.072,0.042-0.115,0.087-0.131c0.049-0.01,0.089-0.018,0.123-0.018h1.188
			c0.091,0,0.141,0.025,0.152,0.076c0.009,0.053,0.007,0.098-0.006,0.135l-0.472,1.881c-0.14,0.6-0.437,1.035-0.892,1.31v0.053
			c0.183,0.063,0.333,0.137,0.45,0.215c0.123,0.08,0.218,0.174,0.296,0.277c0.078,0.107,0.138,0.225,0.182,0.352
			c0.046,0.131,0.09,0.275,0.135,0.428l0.649,2.434c0.014,0.039,0.014,0.08,0.005,0.131c-0.011,0.053-0.063,0.082-0.15,0.082h-1.263
			c-0.033,0-0.076-0.006-0.115-0.025c-0.044-0.008-0.073-0.055-0.096-0.123l-0.607-2.258c-0.058-0.186-0.12-0.334-0.186-0.449
			c-0.066-0.117-0.147-0.201-0.247-0.264c-0.099-0.064-0.213-0.107-0.351-0.133c-0.136-0.025-0.297-0.035-0.476-0.035h-0.768v3.119
			c0,0.076-0.016,0.123-0.048,0.139c-0.03,0.021-0.079,0.029-0.142,0.029h-1.198c-0.069,0-0.119-0.008-0.144-0.029
			c-0.029-0.016-0.042-0.063-0.042-0.139v-3.119h-0.769c-0.182,0-0.345,0.01-0.481,0.035c-0.135,0.025-0.253,0.068-0.353,0.133
			c-0.104,0.063-0.188,0.146-0.259,0.264c-0.071,0.115-0.13,0.264-0.179,0.449l-0.609,2.258c-0.022,0.068-0.052,0.115-0.096,0.123
			c-0.039,0.02-0.081,0.025-0.115,0.025h-1.247c-0.094,0-0.145-0.029-0.154-0.082c-0.011-0.051-0.011-0.092,0.006-0.131l0.651-2.434
			c0.04-0.143,0.085-0.275,0.13-0.406c0.046-0.127,0.108-0.248,0.184-0.357c0.079-0.104,0.175-0.205,0.293-0.287
			c0.119-0.084,0.267-0.158,0.452-0.221V59.578z"/>
		<path fill="#7C98AB" d="M375.484,62.014h-2.404l-0.41,1.334c-0.021,0.072-0.049,0.119-0.089,0.154
			c-0.038,0.031-0.105,0.047-0.206,0.047h-1.228c-0.078,0-0.125-0.025-0.142-0.066c-0.019-0.039-0.019-0.088-0.004-0.146
			l2.182-6.586c0.036-0.115,0.078-0.209,0.123-0.285c0.043-0.072,0.098-0.133,0.155-0.178c0.061-0.037,0.131-0.066,0.212-0.086
			c0.079-0.018,0.172-0.025,0.279-0.025h0.63c0.118,0,0.216,0.006,0.301,0.016c0.086,0.01,0.162,0.037,0.224,0.08
			c0.063,0.041,0.114,0.098,0.161,0.176c0.044,0.076,0.091,0.178,0.133,0.303l2.185,6.586c0.014,0.045,0.014,0.09,0,0.141
			c-0.015,0.045-0.062,0.072-0.137,0.072H376.2c-0.079,0-0.142-0.008-0.196-0.029c-0.051-0.016-0.089-0.063-0.112-0.139
			L375.484,62.014z M373.456,60.723h1.651l-0.4-1.34l-0.388-1.508h-0.064l-0.398,1.508L373.456,60.723z"/>
		<path fill="#7C98AB" d="M273.793,76.979c-0.26,0-0.423-0.053-0.505-0.146c-0.082-0.098-0.121-0.26-0.121-0.482v-6.008
			c0-0.246,0.047-0.428,0.146-0.541c0.096-0.113,0.273-0.172,0.526-0.172h4.093c0.077,0,0.128,0.016,0.153,0.047
			c0.026,0.033,0.039,0.092,0.039,0.186v0.932c0,0.078-0.013,0.129-0.039,0.156c-0.026,0.031-0.077,0.043-0.153,0.043h-3.17v1.303
			h1.532c0.416,0,0.768,0.039,1.063,0.127c0.295,0.082,0.539,0.193,0.738,0.332c0.202,0.139,0.359,0.291,0.474,0.461
			c0.118,0.17,0.203,0.344,0.255,0.52c0.06,0.176,0.096,0.346,0.112,0.51c0.02,0.162,0.028,0.305,0.028,0.424
			c0,0.338-0.065,0.645-0.192,0.924c-0.13,0.279-0.312,0.525-0.538,0.731c-0.226,0.205-0.492,0.365-0.796,0.484
			c-0.309,0.115-0.636,0.172-0.995,0.172H273.793z M277.304,74.586c0-0.273-0.087-0.504-0.257-0.684
			c-0.172-0.182-0.423-0.273-0.753-0.273h-1.532v1.953h1.522c0.195,0,0.364-0.031,0.493-0.102c0.135-0.064,0.239-0.143,0.313-0.246
			c0.079-0.098,0.136-0.205,0.167-0.326C277.289,74.791,277.304,74.682,277.304,74.586z"/>
		<path fill="#7C98AB" d="M281.33,70.33c0.014-0.244,0.065-0.42,0.157-0.531c0.091-0.115,0.261-0.17,0.514-0.17h3.77
			c0.252,0,0.429,0.059,0.525,0.172c0.099,0.113,0.147,0.289,0.147,0.529v6.463c0,0.076-0.01,0.123-0.036,0.146
			c-0.026,0.027-0.086,0.039-0.185,0.039h-1.164c-0.077,0-0.131-0.012-0.162-0.039c-0.034-0.023-0.049-0.07-0.049-0.146v-5.781
			h-2.047l-0.044,0.736c-0.054,0.777-0.111,1.469-0.167,2.068c-0.054,0.604-0.157,1.127-0.305,1.572
			c-0.147,0.443-0.365,0.814-0.654,1.113c-0.293,0.299-0.696,0.533-1.213,0.699c-0.081,0.025-0.143,0.033-0.196,0.018
			c-0.051-0.014-0.094-0.063-0.132-0.149l-0.358-0.783c-0.027-0.066-0.034-0.123-0.02-0.178c0.015-0.057,0.062-0.104,0.136-0.137
			c0.273-0.133,0.494-0.291,0.656-0.475c0.165-0.182,0.295-0.424,0.391-0.721c0.093-0.303,0.164-0.683,0.21-1.142
			c0.044-0.457,0.089-1.027,0.129-1.707L281.33,70.33z"/>
		<path fill="#7C98AB" d="M292.075,75.445h-2.404l-0.409,1.334c-0.021,0.068-0.05,0.123-0.086,0.15
			c-0.039,0.031-0.109,0.049-0.207,0.049h-1.229c-0.078,0-0.122-0.02-0.14-0.063c-0.02-0.043-0.02-0.092-0.008-0.146l2.185-6.584
			c0.036-0.119,0.074-0.217,0.124-0.291c0.043-0.072,0.095-0.129,0.155-0.174c0.06-0.039,0.13-0.072,0.209-0.086
			c0.083-0.022,0.173-0.029,0.279-0.029h0.628c0.122,0,0.224,0.006,0.305,0.014c0.086,0.016,0.16,0.037,0.222,0.08
			c0.065,0.047,0.117,0.102,0.166,0.178c0.04,0.08,0.087,0.184,0.126,0.309l2.188,6.584c0.013,0.039,0.013,0.084,0,0.135
			c-0.015,0.051-0.061,0.074-0.139,0.074h-1.249c-0.077,0-0.143-0.006-0.197-0.023c-0.05-0.023-0.086-0.068-0.11-0.146
			L292.075,75.445z M290.053,74.152h1.646l-0.397-1.334l-0.392-1.514h-0.064l-0.397,1.514L290.053,74.152z"/>
		<path fill="#7C98AB" d="M296.915,76.756c0,0.098-0.013,0.16-0.038,0.184c-0.032,0.027-0.097,0.039-0.202,0.039h-1.113
			c-0.082,0-0.145-0.018-0.181-0.049c-0.039-0.027-0.06-0.088-0.06-0.174v-5.191c0-0.26,0.033-0.498,0.099-0.73
			c0.066-0.232,0.176-0.436,0.327-0.619c0.151-0.182,0.349-0.328,0.595-0.433c0.242-0.111,0.548-0.162,0.912-0.162h3.024
			c0.091,0,0.148,0.016,0.172,0.051c0.026,0.035,0.038,0.102,0.038,0.199v0.893c0,0.09-0.013,0.148-0.044,0.186
			c-0.027,0.029-0.081,0.045-0.166,0.045h-2.678c-0.271,0-0.457,0.063-0.547,0.185c-0.091,0.121-0.139,0.277-0.139,0.467V76.756z"/>
		<path fill="#7C98AB" d="M307.338,73.283c0,0.602-0.061,1.137-0.191,1.604c-0.13,0.469-0.333,0.871-0.606,1.201
			c-0.272,0.324-0.615,0.578-1.028,0.748c-0.415,0.172-0.906,0.26-1.471,0.26c-1.086,0-1.891-0.332-2.421-0.986
			c-0.528-0.658-0.792-1.592-0.792-2.797c0-0.59,0.076-1.119,0.226-1.588c0.15-0.475,0.366-0.873,0.647-1.203
			c0.277-0.32,0.618-0.572,1.018-0.748c0.396-0.172,0.847-0.262,1.351-0.262c0.548,0,1.025,0.09,1.436,0.262
			c0.407,0.176,0.751,0.428,1.017,0.748c0.269,0.33,0.473,0.725,0.609,1.191C307.27,72.182,307.338,72.703,307.338,73.283z
			 M305.668,73.313c0-0.314-0.023-0.615-0.068-0.902c-0.045-0.285-0.128-0.537-0.247-0.76c-0.118-0.211-0.279-0.387-0.482-0.514
			c-0.206-0.133-0.468-0.195-0.79-0.195c-0.265,0-0.497,0.059-0.696,0.184c-0.201,0.121-0.368,0.287-0.497,0.498
			c-0.134,0.211-0.23,0.455-0.293,0.734c-0.065,0.279-0.097,0.578-0.097,0.893c0,0.371,0.025,0.707,0.079,0.998
			c0.054,0.297,0.139,0.547,0.261,0.758c0.122,0.213,0.288,0.373,0.488,0.48c0.205,0.117,0.46,0.168,0.768,0.168
			c0.298,0,0.551-0.063,0.753-0.193c0.206-0.127,0.367-0.301,0.488-0.516c0.117-0.209,0.203-0.463,0.255-0.744
			C305.644,73.918,305.668,73.621,305.668,73.313z"/>
		<path fill="#7C98AB" d="M309.614,76.979c-0.017,0.252-0.033,0.502-0.056,0.758c-0.018,0.25-0.04,0.502-0.063,0.754
			c-0.007,0.149-0.081,0.225-0.228,0.225h-0.852c-0.12,0-0.188-0.074-0.201-0.215l-0.117-2.338c0-0.145,0.026-0.256,0.076-0.344
			c0.047-0.086,0.152-0.146,0.314-0.186l0.378-0.027c0.141-0.143,0.255-0.293,0.347-0.455c0.091-0.158,0.164-0.33,0.216-0.508
			c0.053-0.18,0.093-0.357,0.126-0.543c0.029-0.18,0.059-0.363,0.079-0.543l0.366-2.908c0.022-0.152,0.044-0.293,0.07-0.42
			c0.024-0.131,0.066-0.234,0.125-0.322c0.061-0.088,0.143-0.156,0.249-0.207c0.105-0.049,0.24-0.07,0.407-0.07h3.458
			c0.27,0,0.455,0.059,0.553,0.172c0.093,0.113,0.14,0.289,0.14,0.529v5.275l0.441,0.027c0.159,0.016,0.266,0.061,0.316,0.133
			c0.055,0.074,0.078,0.164,0.073,0.279l-0.138,2.455c-0.007,0.07-0.022,0.123-0.049,0.16c-0.025,0.033-0.07,0.055-0.142,0.055
			H314.6c-0.132,0-0.202-0.076-0.202-0.225l-0.051-1.512H309.614z M313.402,71.012h-1.943c-0.084,0.754-0.155,1.385-0.219,1.902
			c-0.064,0.52-0.127,0.953-0.185,1.311c-0.059,0.352-0.12,0.637-0.182,0.852c-0.062,0.219-0.133,0.395-0.209,0.539h2.738V71.012z"
			/>
		<path fill="#7C98AB" d="M318.694,76.938c-0.033,0.029-0.1,0.041-0.204,0.041h-1.114c-0.084,0-0.145-0.018-0.183-0.049
			c-0.04-0.027-0.056-0.088-0.056-0.174v-6.908c0-0.082,0.016-0.139,0.056-0.172c0.038-0.031,0.099-0.047,0.183-0.047h1.114
			c0.104,0,0.171,0.016,0.204,0.041c0.032,0.025,0.048,0.088,0.048,0.178v6.908C318.742,76.848,318.727,76.91,318.694,76.938z"/>
		<path fill="#7C98AB" d="M325.103,72.063l-0.936,1.578l-1.774,2.877c-0.06,0.098-0.119,0.172-0.167,0.238
			c-0.05,0.055-0.104,0.105-0.16,0.139c-0.054,0.031-0.118,0.061-0.193,0.066c-0.073,0.012-0.161,0.018-0.268,0.018h-0.421
			c-0.27,0-0.455-0.066-0.543-0.195c-0.091-0.129-0.138-0.307-0.138-0.529v-6.436c0-0.135,0.076-0.199,0.219-0.199h1.124
			c0.098,0,0.161,0.014,0.184,0.037c0.024,0.033,0.035,0.084,0.035,0.162v4.727h0.066l0.89-1.473l1.82-2.983
			c0.063-0.098,0.119-0.176,0.164-0.242c0.053-0.063,0.105-0.113,0.161-0.148c0.056-0.029,0.119-0.055,0.19-0.064
			c0.068-0.016,0.156-0.016,0.26-0.016h0.433c0.257,0,0.437,0.051,0.533,0.162c0.099,0.105,0.148,0.299,0.148,0.574v6.424
			c0,0.133-0.072,0.199-0.22,0.199h-1.121c-0.099,0-0.163-0.012-0.191-0.041c-0.03-0.027-0.043-0.084-0.043-0.158v-4.717H325.103z
			 M323.561,69.357c-0.209,0-0.405-0.037-0.594-0.102c-0.184-0.07-0.36-0.156-0.524-0.275c-0.167-0.115-0.315-0.242-0.452-0.389
			c-0.136-0.143-0.262-0.297-0.376-0.455c-0.011-0.022-0.024-0.055-0.04-0.09c-0.013-0.041,0.013-0.088,0.076-0.141l0.407-0.399
			c0.069-0.06,0.116-0.078,0.144-0.06c0.022,0.019,0.062,0.049,0.119,0.088c0.227,0.225,0.448,0.404,0.667,0.529
			c0.221,0.127,0.434,0.188,0.636,0.188c0.083,0,0.172-0.008,0.257-0.025c0.088-0.02,0.184-0.051,0.286-0.107
			c0.108-0.053,0.226-0.127,0.351-0.221c0.124-0.094,0.271-0.221,0.437-0.381c0.073-0.055,0.121-0.084,0.148-0.08
			c0.031,0.004,0.06,0.025,0.096,0.059l0.398,0.344c0.07,0.067,0.101,0.113,0.09,0.15c-0.011,0.035-0.028,0.065-0.049,0.092
			C325.001,68.932,324.309,69.357,323.561,69.357z"/>
		<path fill="#7C98AB" d="M334.428,76.938c-0.031,0.029-0.099,0.041-0.202,0.041h-1.104c-0.094,0-0.153-0.018-0.19-0.049
			c-0.035-0.027-0.054-0.088-0.054-0.174v-2.939h-2.845v2.939c0,0.092-0.016,0.154-0.047,0.182c-0.029,0.029-0.1,0.041-0.205,0.041
			h-1.113c-0.081,0-0.143-0.018-0.18-0.049c-0.042-0.027-0.061-0.088-0.061-0.174v-6.908c0-0.082,0.02-0.139,0.061-0.172
			c0.037-0.031,0.099-0.047,0.18-0.047h1.113c0.106,0,0.176,0.016,0.205,0.041c0.032,0.025,0.047,0.088,0.047,0.178v2.617h2.845
			v-2.617c0-0.082,0.019-0.139,0.054-0.172c0.037-0.031,0.096-0.047,0.19-0.047h1.104c0.103,0,0.17,0.016,0.202,0.041
			c0.031,0.025,0.049,0.088,0.049,0.178v6.908C334.477,76.848,334.459,76.91,334.428,76.938z"/>
		<path fill="#7C98AB" d="M342.421,73.283c0,0.602-0.065,1.137-0.196,1.604c-0.129,0.469-0.331,0.871-0.604,1.201
			c-0.273,0.324-0.616,0.578-1.03,0.748c-0.413,0.172-0.903,0.26-1.471,0.26c-1.083,0-1.891-0.332-2.418-0.986
			c-0.528-0.658-0.793-1.592-0.793-2.797c0-0.59,0.074-1.119,0.225-1.588c0.15-0.475,0.366-0.873,0.647-1.203
			c0.279-0.32,0.619-0.572,1.02-0.748c0.397-0.172,0.85-0.262,1.356-0.262c0.542,0,1.02,0.09,1.431,0.262
			c0.41,0.176,0.751,0.428,1.019,0.748c0.269,0.33,0.472,0.725,0.609,1.191C342.35,72.182,342.421,72.703,342.421,73.283z
			 M340.751,73.313c0-0.314-0.024-0.615-0.069-0.902c-0.045-0.285-0.127-0.537-0.248-0.76c-0.117-0.211-0.28-0.387-0.48-0.514
			c-0.206-0.133-0.465-0.195-0.79-0.195c-0.266,0-0.495,0.059-0.698,0.184c-0.2,0.121-0.366,0.287-0.498,0.498
			c-0.136,0.211-0.234,0.455-0.295,0.734c-0.062,0.279-0.096,0.578-0.096,0.893c0,0.371,0.031,0.707,0.081,0.998
			c0.052,0.297,0.139,0.547,0.263,0.758c0.122,0.213,0.286,0.373,0.49,0.48c0.201,0.117,0.455,0.168,0.766,0.168
			c0.301,0,0.553-0.063,0.755-0.193c0.206-0.127,0.368-0.301,0.486-0.516c0.117-0.209,0.203-0.463,0.254-0.744
			C340.722,73.918,340.751,73.621,340.751,73.313z"/>
		<path fill="#7C98AB" d="M347.167,75.645c0.334,0,0.633-0.039,0.89-0.117c0.257-0.082,0.501-0.168,0.728-0.252
			c0.096-0.041,0.168-0.047,0.208-0.023c0.042,0.023,0.083,0.078,0.116,0.154l0.358,0.756c0.048,0.094,0.065,0.168,0.051,0.217
			c-0.014,0.053-0.051,0.092-0.112,0.129c-0.379,0.232-0.776,0.383-1.194,0.465c-0.417,0.084-0.829,0.123-1.234,0.123
			c-0.573,0-1.072-0.088-1.485-0.26c-0.418-0.17-0.76-0.418-1.031-0.742c-0.27-0.317-0.467-0.713-0.6-1.178
			c-0.126-0.465-0.191-0.99-0.191-1.57c0-0.574,0.082-1.098,0.246-1.564c0.165-0.473,0.395-0.873,0.689-1.205
			c0.295-0.34,0.649-0.598,1.065-0.777c0.416-0.188,0.877-0.275,1.38-0.275c0.359,0,0.707,0.027,1.051,0.088
			c0.344,0.059,0.679,0.182,1.008,0.361c0.077,0.045,0.123,0.088,0.135,0.125c0.015,0.045-0.003,0.125-0.052,0.244l-0.324,0.725
			c-0.034,0.1-0.072,0.158-0.11,0.18c-0.04,0.018-0.105,0.014-0.204-0.021c-0.255-0.092-0.486-0.158-0.706-0.205
			c-0.216-0.045-0.458-0.07-0.723-0.07c-0.29,0-0.541,0.063-0.763,0.188c-0.22,0.123-0.404,0.289-0.555,0.502
			c-0.153,0.215-0.264,0.467-0.343,0.758c-0.076,0.287-0.114,0.607-0.114,0.949c0,0.342,0.029,0.656,0.087,0.934
			c0.061,0.281,0.163,0.521,0.307,0.727c0.143,0.203,0.329,0.361,0.561,0.471C346.536,75.588,346.822,75.645,347.167,75.645z"/>
		<path fill="#7C98AB" d="M355.858,70.992h-1.898v5.764c0,0.092-0.017,0.154-0.048,0.182c-0.031,0.029-0.102,0.041-0.206,0.041
			h-1.124c-0.083,0-0.147-0.018-0.184-0.049c-0.037-0.027-0.06-0.088-0.06-0.174v-5.764h-1.857c-0.136,0-0.199-0.07-0.199-0.209
			v-0.936c0-0.09,0.014-0.152,0.043-0.178c0.026-0.025,0.079-0.041,0.156-0.041h5.376c0.085,0,0.142,0.016,0.168,0.041
			c0.027,0.025,0.043,0.088,0.043,0.178v0.936C356.069,70.922,356,70.992,355.858,70.992z"/>
		<path fill="#7C98AB" d="M358.82,76.938c-0.032,0.029-0.099,0.041-0.206,0.041h-1.111c-0.086,0-0.145-0.018-0.185-0.049
			c-0.04-0.027-0.057-0.088-0.057-0.174v-6.908c0-0.082,0.017-0.139,0.057-0.172c0.04-0.031,0.099-0.047,0.185-0.047h1.111
			c0.107,0,0.174,0.016,0.206,0.041c0.031,0.025,0.049,0.088,0.049,0.178v6.908C358.87,76.848,358.852,76.91,358.82,76.938z"/>
	</g>
	<g>
		<path fill="#FFDA00" d="M35.231,17.244c-4.542-4.331-5.953-10.795-6.693-12.949c-0.34-0.971-0.872-0.38-1.159,0.357
			C26.611,6.628,25.846,11,26.952,15.41c-2.675-1.432-5.175-3.127-7.462-5.057c-4.479-3.535-7.563-6.896-8.814-7.919
			C9.847,1.758,9.668,3.242,9.743,4.267c0.283,3.857,2.774,12.1,10.014,17.973c0.213,0.17,0.512,0.399,0.728,0.563
			c0,0-2.907,2.158-4.378,3.363c-5.991,4.9-9.852,11.691-10.978,14.977c-0.179,0.527-0.083,1.998,1.518,0.229
			c1.758-1.94,4.935-5.307,10.23-8.5c6.958-4.199,10.313-2.324,16.631-5.443c5.533-2.734,5.668-6.4,10.431-6.176
			c0.604,0.029,0.354-0.537,0.099-0.891C42.817,18.695,40.852,16.752,35.231,17.244z"/>
		<path fill="#E5E5E5" d="M31.552,17.41c0.261,0.107,0.692,0.277,0.692,0.277c0.983-0.213,2.01-0.33,2.987-0.443
			c-0.004,0-0.053-0.051-0.053-0.053c-0.564-0.541-1.079-1.115-1.549-1.711C33.441,16.693,32.263,17.201,31.552,17.41z"/>
		<path fill="#00CFFF" d="M26.752,72.135c1.384-5.762,6.328-11.244,9.833-15.02c2.442-2.625,2.549-3.633,1.931-4.223
			c-1.315-1.25-4.57,2.172-6.867,4.176c-1.286,1.119-3.693,3.26-5.714,4.945c-7.558,6.303-10.686,7.074-12.979,6.976
			c-0.813-0.037-1.572-0.23-2.263-0.596c-1.469-0.775-2.583-2.51-3.408-4.428c-0.755-1.76-1.252-3.521-1.758-6.213
			c-0.508-2.691-0.292-7.836-2.234-6.92c-1.476,0.691-1.317,7.014-1.317,7.014C2.221,78.525,18.611,95.34,38.759,96.496
			c1.93,0.113,10.061-0.195,9.592-2.332C47.603,90.758,22.412,90.193,26.752,72.135z M38.839,96.494
			c-0.021-0.002-0.04-0.002-0.062-0.002c0.025,0,0.047,0,0.071,0.002C38.844,96.494,38.841,96.494,38.839,96.494z"/>
		<path fill="#E5E5E5" d="M8.239,71.275c2.907-0.211,6.829-1.656,10.699-4.141l-0.012-0.008c-2.852,1.656-4.566,1.922-5.97,1.863
			c-0.318-0.016-0.625-0.053-0.926-0.117c-1.093,0.793-2.476,1.514-4.183,1.939L8.239,71.275z"/>
		<path fill="#E5E5E5" d="M29.427,91.775c0,0-2.314-4.438-1.434-9.369c-1.62-2.602-2.285-5.932-1.241-10.271
			c0.144-0.604,0.331-1.207,0.547-1.805c0,0.004,0,0.01-0.002,0.014c-3.132,8.412-2.971,16.357,1.449,21.432H29.427z"/>
		<path fill="#00CFFF" d="M13.394,58.059c2.417,1.338,5.953-0.42,7.903-3.932c1.949-3.512,1.567-7.447-0.85-8.787
			c-2.416-1.344-5.955,0.42-7.903,3.93C10.595,52.779,10.977,56.715,13.394,58.059z"/>
		<path fill="#E5E5E5" d="M24.174,25.967l0.657-0.379c-1.537-0.813-2.989-1.742-4.351-2.785c-0.28,0.213-1.459,1.092-2.577,1.949
			C19.952,24.373,24.174,25.967,24.174,25.967z"/>
		<path fill="#56DB31" d="M69.738,42.518c-0.702-2.531-2.744-8.473-7.173-12.305c0.323-0.234,0.666-0.49,1.028-0.771
			c1.111-0.848,2.064-1.449,3.818-1.209c0.581,0.082,0.581-0.389,0.32-0.783c-0.853-1.307-2.241-3.902-8.426-3.418
			c-8.626,0.676-19.391,10.689-21.722,15.984c-0.216,0.494,0.068,0.981,0.624,0.486c1.269-1.127,3.968-3.705,8.678-5.896
			c2.861-1.334,4.874-1.611,8.06-0.891c7.116,1.611,12.081,8.074,14.041,9.822C69.693,44.166,69.992,43.422,69.738,42.518z"/>
		<path fill="#E5E5E5" d="M58.72,27.67c1.403,0.611,2.731,1.582,3.845,2.543c0.302-0.223,0.686-0.51,1.028-0.771
			c-0.425-0.604-3.211-1.814-4.679-1.861L58.72,27.67z"/>
		<path fill="#56DB31" d="M52.898,33.371c2.782,3.185,4.688,6.617,5.59,7.935c0.425,0.617,0.807,0.043,0.816-0.738
			c0.013-1.256-0.219-3.305-0.847-5.635c-1.098-0.52-2.263-0.943-3.493-1.225C54.219,33.545,53.541,33.432,52.898,33.371z"/>
		<path fill="#E5E5E5" d="M52.898,33.371c0.563,0.644,1.093,1.301,1.582,1.947c0.724-0.137,2.035-0.422,4.055-0.094
			c-0.025-0.096-0.052-0.193-0.078-0.291c-1.098-0.52-2.263-0.943-3.493-1.225C54.219,33.545,53.541,33.432,52.898,33.371z"/>
	</g>
</g>
</svg>
